<svg width="181" height="158" viewBox="0 0 181 158" fill="none" xmlns="http://www.w3.org/2000/svg">
<circle cx="47.7471" cy="71.9203" r="10.0222" transform="rotate(132.329 47.7471 71.9203)" fill="#C4C4C4"/>
<circle cx="47.7471" cy="71.9203" r="10.0222" transform="rotate(132.329 47.7471 71.9203)" fill="url(#paint0_linear)"/>
<circle cx="44.1105" cy="44.658" r="7.68369" transform="rotate(132.329 44.1105 44.658)" fill="#C4C4C4"/>
<circle cx="44.1105" cy="44.658" r="7.68369" transform="rotate(132.329 44.1105 44.658)" fill="url(#paint1_linear)"/>
<circle cx="39.7501" cy="22.159" r="6.01332" transform="rotate(132.329 39.7501 22.159)" fill="#C4C4C4"/>
<circle cx="39.7501" cy="22.159" r="6.01332" transform="rotate(132.329 39.7501 22.159)" fill="url(#paint2_linear)"/>
<circle cx="38.4856" cy="5.19141" r="3.67481" transform="rotate(132.329 38.4856 5.19141)" fill="#C4C4C4"/>
<circle cx="38.4856" cy="5.19141" r="3.67481" transform="rotate(132.329 38.4856 5.19141)" fill="url(#paint3_linear)"/>
<ellipse rx="15.091" ry="15.2416" transform="matrix(-0.339123 0.940742 -0.939815 -0.341684 145.531 129.136)" fill="#C4C4C4"/>
<ellipse rx="15.091" ry="15.2416" transform="matrix(-0.339123 0.940742 -0.939815 -0.341684 145.531 129.136)" fill="url(#paint4_linear)"/>
<ellipse rx="11.5698" ry="11.6852" transform="matrix(-0.339123 0.940742 -0.939815 -0.341684 124.492 93.1186)" fill="#C4C4C4"/>
<ellipse rx="11.5698" ry="11.6852" transform="matrix(-0.339123 0.940742 -0.939815 -0.341684 124.492 93.1186)" fill="url(#paint5_linear)"/>
<ellipse rx="9.05462" ry="9.14497" transform="matrix(-0.339123 0.940742 -0.939815 -0.341684 105.225 64.1689)" fill="#C4C4C4"/>
<ellipse rx="9.05462" ry="9.14497" transform="matrix(-0.339123 0.940742 -0.939815 -0.341684 105.225 64.1689)" fill="url(#paint6_linear)"/>
<ellipse rx="5.06973" ry="5.12032" transform="matrix(-0.339123 0.940742 -0.939815 -0.341684 91.6042 42.6199)" fill="#C4C4C4"/>
<ellipse rx="5.06973" ry="5.12032" transform="matrix(-0.339123 0.940742 -0.939815 -0.341684 91.6042 42.6199)" fill="url(#paint7_linear)"/>
<defs>
<linearGradient id="paint0_linear" x1="37.7249" y1="71.8936" x2="57.7693" y2="71.8936" gradientUnits="userSpaceOnUse">
<stop stop-color="#79DCD2"/>
<stop offset="1" stop-color="#3FB4C7"/>
</linearGradient>
<linearGradient id="paint1_linear" x1="36.4268" y1="44.6375" x2="51.7942" y2="44.6375" gradientUnits="userSpaceOnUse">
<stop stop-color="#79DCD2"/>
<stop offset="1" stop-color="#3FB4C7"/>
</linearGradient>
<linearGradient id="paint2_linear" x1="33.7368" y1="22.143" x2="45.7634" y2="22.143" gradientUnits="userSpaceOnUse">
<stop stop-color="#79DCD2"/>
<stop offset="1" stop-color="#3FB4C7"/>
</linearGradient>
<linearGradient id="paint3_linear" x1="34.8108" y1="5.18161" x2="42.1604" y2="5.18161" gradientUnits="userSpaceOnUse">
<stop stop-color="#79DCD2"/>
<stop offset="1" stop-color="#3FB4C7"/>
</linearGradient>
<linearGradient id="paint4_linear" x1="1.38035e-07" y1="15.201" x2="30.1821" y2="15.201" gradientUnits="userSpaceOnUse">
<stop stop-color="#79DCD2"/>
<stop offset="1" stop-color="#3FB4C7"/>
</linearGradient>
<linearGradient id="paint5_linear" x1="1.05826e-07" y1="11.6541" x2="23.1396" y2="11.6541" gradientUnits="userSpaceOnUse">
<stop stop-color="#79DCD2"/>
<stop offset="1" stop-color="#3FB4C7"/>
</linearGradient>
<linearGradient id="paint6_linear" x1="8.28207e-08" y1="9.12058" x2="18.1092" y2="9.12058" gradientUnits="userSpaceOnUse">
<stop stop-color="#79DCD2"/>
<stop offset="1" stop-color="#3FB4C7"/>
</linearGradient>
<linearGradient id="paint7_linear" x1="4.63718e-08" y1="5.10667" x2="10.1395" y2="5.10667" gradientUnits="userSpaceOnUse">
<stop stop-color="#79DCD2"/>
<stop offset="1" stop-color="#3FB4C7"/>
</linearGradient>
</defs>
</svg>
