<svg width="70" height="70" viewBox="0 0 70 70" fill="none" xmlns="http://www.w3.org/2000/svg">
<g clip-path="url(#clip0)">
<path d="M50.5418 10.9375C50.5418 13.8697 48.1406 16.2709 45.2084 16.2709C42.2761 16.2709 39.875 13.8697 39.875 10.9375C39.875 8.00527 42.2761 5.60413 45.2084 5.60413C48.1406 5.60413 50.5418 8.00527 50.5418 10.9375Z" fill="black" stroke="black"/>
<path d="M0.5 50.3125C0.5 42.5678 6.83864 36.2291 14.5834 36.2291C22.328 36.2291 28.6668 42.5678 28.6668 50.3125C28.6668 58.0572 22.3281 64.3959 14.5834 64.3959C6.83864 64.3959 0.5 58.0572 0.5 50.3125ZM3.875 50.3125C3.875 56.2761 8.61974 61.0209 14.5834 61.0209C20.547 61.0209 25.2918 56.2761 25.2918 50.3125C25.2918 44.3489 20.547 39.6041 14.5834 39.6041C8.61974 39.6041 3.875 44.3489 3.875 50.3125Z" fill="black" stroke="black"/>
<path d="M54.7709 27.3264V32.1614C49.1357 32.043 44.3463 29.9229 40.902 26.3409L40.9021 26.3409L40.8952 26.3339L38.7077 24.1464L38.3504 23.7892L37.9969 24.1502L31.1428 31.1502L30.7966 31.5037L31.1465 31.8536L37.4166 38.1237V55.6459H32.5833V41.5625V41.338L32.4154 41.1888L23.2517 33.0433C22.2958 31.9427 21.6458 30.6055 21.6458 29.1668C21.6458 27.7146 22.3074 26.3788 23.2493 25.4369L31.2702 17.4161L31.2819 17.4043L31.2929 17.3918C32.206 16.3483 33.5194 15.8125 35 15.8125C36.4585 15.8125 37.7781 16.4781 38.5579 17.3879L38.5725 17.4049L38.5886 17.4206L44.2737 22.96C46.8936 25.5787 50.4887 27.2086 54.7709 27.3264Z" fill="black" stroke="black"/>
<path d="M41.3333 50.3125C41.3333 42.5678 47.6719 36.2291 55.4166 36.2291C63.1614 36.2291 69.5 42.5678 69.5 50.3125C69.5 58.0572 63.1614 64.3959 55.4166 64.3959C47.6719 64.3959 41.3333 58.0572 41.3333 50.3125ZM44.7083 50.3125C44.7083 56.2761 49.453 61.0209 55.4166 61.0209C61.3803 61.0209 66.125 56.2761 66.125 50.3125C66.125 44.3489 61.3803 39.6041 55.4166 39.6041C49.453 39.6041 44.7083 44.3489 44.7083 50.3125Z" fill="black" stroke="black"/>
</g>
<defs>
<clipPath id="clip0">
<rect width="70" height="70" fill="white"/>
</clipPath>
</defs>
</svg>
