<svg width="76" height="76" viewBox="0 0 76 76" fill="none" xmlns="http://www.w3.org/2000/svg">
<path d="M30.1433 38.4349C29.5644 37.8545 28.6233 37.8545 28.0444 38.4349C27.464 39.0138 27.464 39.9549 28.0444 40.5338C28.6233 41.1142 29.5644 41.1142 30.1433 40.5338C30.7237 39.9549 30.7237 39.0138 30.1433 38.4349Z" fill="black"/>
<path d="M38 40.9688C35.5445 40.9688 33.5469 42.9664 33.5469 45.4219C33.5469 47.8773 35.5445 49.875 38 49.875C40.4555 49.875 42.4531 47.8773 42.4531 45.4219C42.4531 42.9664 40.4555 40.9688 38 40.9688ZM38 46.9062C37.1815 46.9062 36.5156 46.2404 36.5156 45.4219C36.5156 44.6034 37.1815 43.9375 38 43.9375C38.8185 43.9375 39.4844 44.6034 39.4844 45.4219C39.4844 46.2404 38.8185 46.9062 38 46.9062Z" fill="black"/>
<path d="M38 33.5469C36.3408 33.5469 34.7363 33.8822 33.2316 34.5436C32.4811 34.8736 32.1401 35.7494 32.47 36.4999C32.7998 37.2504 33.6757 37.5912 34.4262 37.2615C35.5521 36.7666 36.7546 36.5156 38 36.5156C42.9109 36.5156 46.9062 40.511 46.9062 45.4219C46.9062 50.3328 42.9109 54.3281 38 54.3281C33.0891 54.3281 29.0938 50.3328 29.0938 45.4219C29.0938 45.3711 29.0936 45.3215 29.0948 45.2708C29.1138 44.4512 28.4648 43.7714 27.6453 43.7524C26.8244 43.7319 26.1459 44.3822 26.1269 45.2019C26.1251 45.2758 26.125 45.348 26.125 45.4219C26.125 51.9697 31.4521 57.2969 38 57.2969C44.5479 57.2969 49.875 51.9697 49.875 45.4219C49.875 38.874 44.5479 33.5469 38 33.5469Z" fill="black"/>
<path d="M38 11.2812C37.1802 11.2812 36.5156 11.9458 36.5156 12.7656V21.6719C36.5156 22.4917 37.1802 23.1562 38 23.1562C38.8198 23.1562 39.4844 22.4917 39.4844 21.6719V12.7656C39.4844 11.9458 38.8198 11.2812 38 11.2812Z" fill="black"/>
<path d="M21.4167 22.2861L15.12 15.9894C14.5404 15.4098 13.6005 15.4098 13.0207 15.9894C12.441 16.5691 12.441 17.509 13.0207 18.0888L19.3174 24.3855C19.897 24.9651 20.8371 24.9653 21.4167 24.3855C21.9964 23.8058 21.9964 22.8659 21.4167 22.2861Z" fill="black"/>
<path d="M62.9792 15.9894C62.3996 15.4098 61.4597 15.4098 60.8799 15.9894L54.5832 22.2861C54.0035 22.8658 54.0035 23.8057 54.5832 24.3855C55.1627 24.9651 56.1027 24.9653 56.6825 24.3855L62.9792 18.0888C63.5589 17.5091 63.5589 16.5692 62.9792 15.9894Z" fill="black"/>
<path d="M75.6282 45.6757C66.1987 35.0002 52.1974 26.125 38 26.125C23.8006 26.125 9.79953 35.0025 0.371823 45.6757C-0.170865 46.2902 -0.112677 47.2282 0.501706 47.7709C1.11624 48.3136 2.05436 48.2554 2.5969 47.641C2.91322 47.2828 3.23726 46.926 3.56546 46.5714C10.9005 57.6543 24.1972 64.7188 38 64.7188C51.8027 64.7188 65.0995 57.6543 72.4345 46.5714C72.7627 46.9261 73.0868 47.283 73.4031 47.641C73.944 48.2535 74.882 48.3152 75.4983 47.7709C76.1127 47.2282 76.1708 46.2901 75.6282 45.6757ZM38 61.75C24.9501 61.75 12.3988 54.9695 5.68678 44.3858C10.9753 39.2037 23.195 29.0938 38 29.0938C52.8051 29.0938 65.0247 39.2037 70.3132 44.3856C63.6012 54.9695 51.0499 61.75 38 61.75Z" fill="black"/>
</svg>
