<svg width="49" height="49" viewBox="0 0 49 49" fill="none" xmlns="http://www.w3.org/2000/svg">
<path d="M48.8242 44.4255L42.2435 23.401C42.9698 22.995 43.4668 22.2282 43.4668 21.3391C43.4668 20.3744 42.8849 19.5451 42.056 19.1754L44.0453 11.218C44.1857 10.6573 44.2571 10.0804 44.2571 9.50113V8.83199C44.2571 6.8979 42.9034 5.28101 41.0959 4.85885V0.000854492H39.5153V4.79672C38.1091 5.02092 36.9136 5.95748 36.3714 7.31351L36.3541 7.35788L36.3367 7.31351C35.7945 5.95748 34.5986 5.02092 33.1928 4.79672V0.000854492H31.6122V4.85808C29.8047 5.28101 28.451 6.89713 28.451 8.83122C28.451 9.85229 28.5764 10.8734 28.8249 11.8659L30.6517 19.1754C29.8228 19.5451 29.2413 20.3744 29.2413 21.3391C29.2413 22.2282 29.7383 22.995 30.4646 23.401L23.8836 44.4255C23.4468 45.8221 23.8404 47.327 24.912 48.3535C24.9189 48.3605 24.927 48.3678 24.9348 48.374C25.3781 48.7888 25.9551 48.9968 26.532 48.9968C27.1177 48.9968 27.7031 48.7826 28.1489 48.355L28.463 48.0548C28.7474 47.7812 29.227 47.782 29.5114 48.0541L29.8252 48.355C30.7173 49.2102 32.1695 49.2102 33.0616 48.355L33.3746 48.0548C33.659 47.7812 34.1387 47.782 34.4235 48.0541L34.7372 48.355C35.6294 49.2102 37.0803 49.2102 37.9725 48.355L38.2862 48.0541C38.5699 47.782 39.0507 47.782 39.3343 48.0541L39.648 48.355C40.5394 49.2117 41.9912 49.2102 42.8834 48.355L43.1971 48.0548C43.4819 47.7812 43.9615 47.782 44.2459 48.0541L44.5597 48.355C45.4449 49.2032 46.88 49.2094 47.773 48.3755C47.7811 48.3678 47.7896 48.3605 47.7969 48.3535C48.8678 47.327 49.2621 45.8221 48.8242 44.4255ZM31.6122 22.1294C31.1766 22.1294 30.8219 21.7756 30.8219 21.3391C30.8219 20.9031 31.1766 20.5488 31.6122 20.5488H41.0959C41.5312 20.5488 41.8862 20.9031 41.8862 21.3391C41.8862 21.7756 41.5312 22.1294 41.0959 22.1294H31.6122ZM30.0316 8.83199C30.0316 7.44896 31.1569 6.32331 32.5399 6.32331C33.5722 6.32331 34.4856 6.94228 34.8692 7.90006L35.6205 9.77781C35.7409 10.078 36.0307 10.2748 36.3541 10.2748C36.6771 10.2748 36.9672 10.078 37.0873 9.77781L37.839 7.90006C38.2222 6.94228 39.1367 6.32331 40.1678 6.32331C41.5509 6.32331 42.6765 7.44896 42.6765 8.83199V9.50113C42.6765 9.95108 42.621 10.3999 42.5121 10.8352L40.4785 18.9682H32.2293L30.3581 11.4835C30.1412 10.6164 30.0316 9.72417 30.0316 8.83199ZM27.369 46.9126L27.0545 47.214C26.7701 47.4864 26.2912 47.4864 26.0072 47.214C26.0017 47.2082 25.9956 47.2028 25.9898 47.1974C25.3662 46.5888 25.1374 45.7098 25.3917 44.8975L32.0232 23.7101H33.0188L28.4954 46.3272C28.0825 46.414 27.69 46.6062 27.369 46.9126ZM32.2798 46.9126L31.9669 47.214C31.6825 47.4856 31.2028 47.4856 30.9192 47.214L30.6047 46.9118C30.4426 46.7571 30.2577 46.6394 30.0648 46.5406L34.6311 23.7101H35.5638V46.9585L35.5155 46.9126C34.6249 46.0578 33.1732 46.0578 32.2798 46.9126ZM41.789 47.214C41.5053 47.4872 41.0264 47.4856 40.7417 47.214L40.4272 46.9118C39.535 46.0586 38.084 46.0578 37.1926 46.9126L37.1444 46.9585V23.7101H38.0767L42.6433 46.5414C42.4504 46.6401 42.2655 46.7578 42.1035 46.9137L41.789 47.214ZM46.7187 47.1974C46.7126 47.2028 46.7064 47.209 46.7006 47.214C46.4162 47.4849 45.9365 47.4849 45.6537 47.214L45.3392 46.9118C45.0189 46.6054 44.6253 46.4132 44.2128 46.3272L39.6889 23.7101H40.6849L47.3165 44.8982C47.57 45.7098 47.3416 46.5888 46.7187 47.1974Z" fill="black"/>
<path d="M26.7029 19.4552C26.8523 19.2638 26.9059 19.0133 26.8465 18.7779L23.6853 6.13302C23.6254 5.89261 23.4572 5.69504 23.2303 5.59779L18.177 3.43255V0.791894C18.177 0.355064 17.8228 0.00158691 17.3867 0.00158691H9.48366C9.04721 0.00158691 8.69335 0.355064 8.69335 0.791894V3.43255L3.6401 5.59779C3.41319 5.69504 3.24494 5.89261 3.18474 6.13302L0.0235168 18.7779C-0.0355246 19.0141 0.0181144 19.2638 0.167454 19.4552C0.316795 19.647 0.546786 19.7593 0.790284 19.7593H4.74182C5.09028 19.7593 5.39861 19.53 5.49894 19.1959L6.61494 15.4766L7.11505 22.9726C7.14206 23.3886 7.48744 23.7108 7.90304 23.7108H18.9673C19.3829 23.7108 19.7283 23.3886 19.7561 22.9726L20.2562 15.4766L21.3722 19.1959C21.4718 19.53 21.7801 19.7593 22.1286 19.7593H26.0801C26.3236 19.7593 26.5536 19.647 26.7029 19.4552ZM13.4352 12.6673L10.6051 4.74343H16.2653L13.4352 12.6673ZM10.274 1.5822H16.5964V3.16281H10.274V1.5822ZM4.15372 18.1786H1.80248L4.62335 6.89632L5.04744 6.71534L6.28924 11.0613L4.15372 18.1786ZM7.9015 11.0138C7.89841 10.9586 7.88799 10.903 7.87294 10.8494L6.5119 6.08633L9.02213 5.01047L12.6449 15.1544V22.1302H8.6428L7.9015 11.0138ZM18.2276 22.1302H14.2255V15.1544L17.8482 5.01047L20.3581 6.08633L18.9974 10.8486L19.0082 10.8517C18.9932 10.9046 18.972 10.9563 18.9689 11.013L18.2276 22.1302ZM22.7167 18.1786L20.5811 11.0605L21.8225 6.71456L22.247 6.89632L25.0675 18.1786H22.7167Z" fill="black"/>
<path d="M18.9674 25.2906H7.9031C7.46666 25.2906 7.11279 25.6441 7.11279 26.081V48.2096C7.11279 48.6468 7.46666 48.9999 7.9031 48.9999H11.0643C11.4529 48.9999 11.7844 48.717 11.845 48.333L13.4352 38.2613L15.0251 48.333C15.0861 48.717 15.4172 48.9999 15.8062 48.9999H18.9674C19.4034 48.9999 19.7577 48.6468 19.7577 48.2096V26.081C19.7577 25.6441 19.4034 25.2906 18.9674 25.2906ZM18.1771 47.4192H16.4811L14.2151 33.0706C14.1553 32.6863 13.8238 32.4034 13.4352 32.4034C13.0463 32.4034 12.7152 32.6863 12.6542 33.0706L10.3894 47.4192H8.69341V26.8713H18.1771V47.4192Z" fill="black"/>
</svg>
