<svg width="151" height="106" viewBox="0 0 151 106" fill="none" xmlns="http://www.w3.org/2000/svg">
<circle cx="14.1217" cy="43.3861" r="10.0222" transform="rotate(-130.099 14.1217 43.3861)" fill="#C4C4C4"/>
<circle cx="14.1217" cy="43.3861" r="10.0222" transform="rotate(-130.099 14.1217 43.3861)" fill="url(#paint0_linear)"/>
<circle cx="41.6255" cy="43.3737" r="7.68369" transform="rotate(-130.099 41.6255 43.3737)" fill="#C4C4C4"/>
<circle cx="41.6255" cy="43.3737" r="7.68369" transform="rotate(-130.099 41.6255 43.3737)" fill="url(#paint1_linear)"/>
<circle cx="64.5028" cy="42.0161" r="6.01332" transform="rotate(-130.099 64.5028 42.0161)" fill="#C4C4C4"/>
<circle cx="64.5028" cy="42.0161" r="6.01332" transform="rotate(-130.099 64.5028 42.0161)" fill="url(#paint2_linear)"/>
<circle cx="81.4892" cy="42.9986" r="3.67481" transform="rotate(-130.099 81.4892 42.9986)" fill="#C4C4C4"/>
<circle cx="81.4892" cy="42.9986" r="3.67481" transform="rotate(-130.099 81.4892 42.9986)" fill="url(#paint3_linear)"/>
<ellipse rx="15.091" ry="15.2416" transform="matrix(-0.618446 -0.785827 0.787508 -0.616304 40.9281 73.0763)" fill="#C4C4C4"/>
<ellipse rx="15.091" ry="15.2416" transform="matrix(-0.618446 -0.785827 0.787508 -0.616304 40.9281 73.0763)" fill="url(#paint4_linear)"/>
<ellipse rx="11.5698" ry="11.6852" transform="matrix(-0.618446 -0.785827 0.787508 -0.616304 82.6222 74.3008)" fill="#C4C4C4"/>
<ellipse rx="11.5698" ry="11.6852" transform="matrix(-0.618446 -0.785827 0.787508 -0.616304 82.6222 74.3008)" fill="url(#paint5_linear)"/>
<ellipse rx="9.05462" ry="9.14497" transform="matrix(-0.618446 -0.785827 0.787508 -0.616304 117.382 73.2868)" fill="#C4C4C4"/>
<ellipse rx="9.05462" ry="9.14497" transform="matrix(-0.618446 -0.785827 0.787508 -0.616304 117.382 73.2868)" fill="url(#paint6_linear)"/>
<ellipse rx="5.06973" ry="5.12032" transform="matrix(-0.618446 -0.785827 0.787508 -0.616304 142.875 73.1432)" fill="#C4C4C4"/>
<ellipse rx="5.06973" ry="5.12032" transform="matrix(-0.618446 -0.785827 0.787508 -0.616304 142.875 73.1432)" fill="url(#paint7_linear)"/>
<defs>
<linearGradient id="paint0_linear" x1="4.09952" y1="43.3594" x2="24.1439" y2="43.3594" gradientUnits="userSpaceOnUse">
<stop stop-color="#79DCD2"/>
<stop offset="1" stop-color="#3FB4C7"/>
</linearGradient>
<linearGradient id="paint1_linear" x1="33.9419" y1="43.3532" x2="49.3092" y2="43.3532" gradientUnits="userSpaceOnUse">
<stop stop-color="#79DCD2"/>
<stop offset="1" stop-color="#3FB4C7"/>
</linearGradient>
<linearGradient id="paint2_linear" x1="58.4895" y1="42.0001" x2="70.5161" y2="42.0001" gradientUnits="userSpaceOnUse">
<stop stop-color="#79DCD2"/>
<stop offset="1" stop-color="#3FB4C7"/>
</linearGradient>
<linearGradient id="paint3_linear" x1="77.8144" y1="42.9888" x2="85.164" y2="42.9888" gradientUnits="userSpaceOnUse">
<stop stop-color="#79DCD2"/>
<stop offset="1" stop-color="#3FB4C7"/>
</linearGradient>
<linearGradient id="paint4_linear" x1="1.38035e-07" y1="15.201" x2="30.1821" y2="15.201" gradientUnits="userSpaceOnUse">
<stop stop-color="#79DCD2"/>
<stop offset="1" stop-color="#3FB4C7"/>
</linearGradient>
<linearGradient id="paint5_linear" x1="1.05826e-07" y1="11.6541" x2="23.1396" y2="11.6541" gradientUnits="userSpaceOnUse">
<stop stop-color="#79DCD2"/>
<stop offset="1" stop-color="#3FB4C7"/>
</linearGradient>
<linearGradient id="paint6_linear" x1="8.28207e-08" y1="9.12058" x2="18.1092" y2="9.12058" gradientUnits="userSpaceOnUse">
<stop stop-color="#79DCD2"/>
<stop offset="1" stop-color="#3FB4C7"/>
</linearGradient>
<linearGradient id="paint7_linear" x1="4.63718e-08" y1="5.10667" x2="10.1395" y2="5.10667" gradientUnits="userSpaceOnUse">
<stop stop-color="#79DCD2"/>
<stop offset="1" stop-color="#3FB4C7"/>
</linearGradient>
</defs>
</svg>
