<svg width="60" height="60" viewBox="0 0 60 60" fill="none" xmlns="http://www.w3.org/2000/svg">
<g clip-path="url(#clip0)">
<path d="M45.3675 16.3634L42.4384 22.0828L45.9046 4.82514C46.1363 3.75507 45.9183 2.63645 45.3016 1.73121C44.6848 0.825975 43.7237 0.21424 42.6426 0.0379545C40.4938 -0.254634 38.486 1.16847 38.0505 3.29306L36.208 11.3949L34.2556 20.4395L34.0243 4.91718C33.9918 2.70742 32.174 0.942735 29.9643 0.975245C27.7545 1.00775 25.9898 2.82556 26.0223 5.03531V22.5398L24.5218 19.3822C23.6857 17.5933 21.6665 16.6853 19.7736 17.2476L14.3929 18.83C13.7482 19.0287 13.1878 19.4367 12.8009 19.9894L10.1841 23.7143C9.50319 24.6616 9.29898 25.8709 9.63094 26.9891C9.63598 27.0042 9.64468 27.017 9.6488 27.0321C8.1506 27.2139 7.02237 28.4827 7.01733 29.9919V37.7388C7.01733 38.5447 7.34197 39.3167 7.91754 39.8808L17.6421 49.0692C17.9622 49.3842 18.2099 49.7652 18.3683 50.1855C18.5437 50.6191 18.7621 51.0344 19.0203 51.4246V56.9993C19.0203 58.6564 20.3638 59.9998 22.0213 59.9998H38.0253C39.6829 59.9998 41.0263 58.6564 41.0263 56.9993V51.5216C41.9059 50.3563 42.5437 49.0271 42.9018 47.6118C43.4696 45.3333 43.8643 43.015 44.0831 40.6766C44.2182 39.5415 44.356 38.3913 44.5351 37.2287C44.8602 35.2379 45.5044 33.3129 46.4435 31.5276L52.6291 19.7174C53.1094 18.7302 53.1625 17.5896 52.7765 16.5621C52.3901 15.5351 51.5984 14.7118 50.5869 14.286C48.5713 13.4874 46.2828 14.3981 45.3675 16.3634ZM20.7608 33.144L18.6421 36.2938C18.3573 36.1884 18.0881 36.0451 17.8422 35.8665L16.4195 34.7933C16.1677 34.6042 16.0194 34.3079 16.0194 33.9929V32.9929C16.0216 31.6801 15.5894 30.404 14.7904 29.3627C15.2213 29.1741 15.6137 28.9076 15.9484 28.5766L18.258 26.1859C18.431 26.033 18.6701 25.9781 18.8921 26.0403C19.1147 26.1026 19.29 26.2734 19.3583 26.4941L20.85 32.4406C20.9137 32.6774 20.8821 32.9301 20.7617 33.144H20.7608ZM49.8053 16.1285C50.3154 16.3419 50.7142 16.7581 50.9056 17.2764C51.0961 17.7764 51.0737 18.3323 50.8429 18.8149L44.6692 30.6013C43.6294 32.5803 42.9164 34.715 42.5584 36.922C42.3757 38.1093 42.2347 39.2824 42.0964 40.439C41.8876 42.678 41.5117 44.8983 40.9723 47.0815C40.355 49.3242 38.9965 51.9978 36.0248 51.9978C35.4726 51.9978 35.0248 52.4456 35.0248 52.9983C35.0248 53.5505 35.4726 53.9983 36.0248 53.9983C37.0743 54.0029 38.1077 53.7378 39.0258 53.2291V56.9993C39.0258 57.5515 38.578 57.9993 38.0253 57.9993H22.0213C21.4686 57.9993 21.0208 57.5515 21.0208 56.9993V53.29C21.9467 53.7721 22.9783 54.0153 24.0218 53.9983C24.574 53.9983 25.0218 53.5505 25.0218 52.9983C25.0218 52.4456 24.574 51.9978 24.0218 51.9978C22.3203 52.1141 20.7562 51.0633 20.2205 49.4442C19.9558 48.7533 19.5423 48.1287 19.0103 47.6145L9.30768 38.4463C9.1204 38.2585 9.016 38.0039 9.01783 37.7388V29.9919C9.01371 29.4493 9.44641 29.0038 9.98901 28.9919C11.055 28.9841 12.0802 29.4021 12.8371 30.1535C13.5935 30.9044 14.0189 31.9264 14.0189 32.9929V33.9929C14.0211 34.937 14.4653 35.8253 15.2194 36.3936L16.6457 37.4641C17.2969 37.938 18.0455 38.2608 18.8372 38.4092C18.8665 38.416 18.8935 38.4211 18.9223 38.4261C20.1312 38.6395 21.3766 38.4508 22.4682 37.889C22.7883 37.7292 22.9984 37.411 23.02 37.0543C23.0415 36.6976 22.8712 36.356 22.5731 36.1591C22.2745 35.9618 21.894 35.9389 21.574 36.0987C21.4018 36.1816 21.2237 36.2516 21.041 36.3089L22.4412 34.231C22.8625 33.5496 22.9893 32.7264 22.7924 31.9493L21.3038 26.0138C21.0176 24.8251 19.953 23.9881 18.7305 23.9904C18.0047 23.9835 17.3097 24.2788 16.8106 24.8054L14.5193 27.1741C13.8591 27.8206 12.8146 27.8558 12.1122 27.2556C11.4103 26.6553 11.2825 25.6182 11.8183 24.8659L14.4392 21.1345C14.5697 20.9505 14.7574 20.8149 14.9731 20.7486L20.3395 19.1702C21.2882 18.8877 22.3006 19.3415 22.7214 20.2376L25.7412 26.615C25.9839 27.1182 26.5411 27.3879 27.0864 27.2652C27.6313 27.142 28.0196 26.6594 28.0228 26.1008V5.01745C28.004 3.91258 28.885 3.00184 29.9899 2.98353C31.0948 2.96476 32.0055 3.84527 32.0238 4.95015L32.354 27.0564C32.3576 27.6933 32.8407 28.2258 33.4749 28.2899C34.109 28.3545 34.6896 27.9309 34.8215 27.3073L38.1604 11.834L40.0038 3.73217C40.2012 2.64057 41.2136 1.89056 42.3157 2.01968C42.8597 2.10576 43.3437 2.41346 43.6523 2.86952C43.9613 3.32557 44.0676 3.88923 43.9458 4.42632L39.3376 27.3604C39.2167 27.9465 39.5455 28.5321 40.1092 28.7336C40.6728 28.9351 41.2983 28.6906 41.5762 28.1603L47.1569 17.2576C47.6116 16.2498 48.7632 15.759 49.8053 16.1285Z" fill="black"/>
<path d="M28.1649 33.003C27.811 32.9522 27.457 33.0941 27.2363 33.3748C27.0156 33.6559 26.9611 34.0337 27.0944 34.3652C27.2272 34.6972 27.5271 34.9325 27.881 34.9833C29.6814 35.2416 34.6825 36.5438 36.1298 39.4418C36.3771 39.9358 36.9778 40.1368 37.4723 39.8896C37.9669 39.6428 38.1674 39.0416 37.9206 38.5475C35.7109 34.128 28.4708 33.0469 28.1649 33.003Z" fill="black"/>
<path d="M27.3946 37.0658C27.0613 36.9243 26.6771 36.9738 26.3905 37.1958C26.1043 37.4175 25.9601 37.7769 26.0141 38.1354C26.0681 38.4935 26.3113 38.7948 26.6506 38.9225C26.6945 38.9404 31.0234 40.7449 31.0234 46.9964C31.0234 47.5491 31.4712 47.9969 32.0238 47.9969C32.5761 47.9969 33.0239 47.5491 33.0239 46.9964C33.0239 39.4056 27.6227 37.1578 27.3946 37.0658Z" fill="black"/>
</g>
<defs>
<clipPath id="clip0">
<rect width="60" height="60" fill="white"/>
</clipPath>
</defs>
</svg>
