<svg width="180" height="92" viewBox="0 0 180 92" fill="none" xmlns="http://www.w3.org/2000/svg">
<circle cx="65.9701" cy="66.7621" r="10.0222" transform="rotate(74.4395 65.9701 66.7621)" fill="#C4C4C4"/>
<circle cx="65.9701" cy="66.7621" r="10.0222" transform="rotate(74.4395 65.9701 66.7621)" fill="url(#paint0_linear)"/>
<circle cx="40.9451" cy="55.3511" r="7.68369" transform="rotate(74.4395 40.9451 55.3511)" fill="#C4C4C4"/>
<circle cx="40.9451" cy="55.3511" r="7.68369" transform="rotate(74.4395 40.9451 55.3511)" fill="url(#paint1_linear)"/>
<circle cx="19.5703" cy="47.085" r="6.01332" transform="rotate(74.4395 19.5703 47.085)" fill="#C4C4C4"/>
<circle cx="19.5703" cy="47.085" r="6.01332" transform="rotate(74.4395 19.5703 47.085)" fill="url(#paint2_linear)"/>
<circle cx="4.52612" cy="39.1369" r="3.67481" transform="rotate(74.4395 4.52612 39.1369)" fill="#C4C4C4"/>
<circle cx="4.52612" cy="39.1369" r="3.67481" transform="rotate(74.4395 4.52612 39.1369)" fill="url(#paint3_linear)"/>
<ellipse rx="15.091" ry="15.2416" transform="matrix(0.616568 0.787302 -0.788978 0.614422 154.983 32.5586)" fill="#C4C4C4"/>
<ellipse rx="15.091" ry="15.2416" transform="matrix(0.616568 0.787302 -0.788978 0.614422 154.983 32.5586)" fill="url(#paint4_linear)"/>
<ellipse rx="11.5698" ry="11.6852" transform="matrix(0.616568 0.787302 -0.788978 0.614422 113.292 31.2344)" fill="#C4C4C4"/>
<ellipse rx="11.5698" ry="11.6852" transform="matrix(0.616568 0.787302 -0.788978 0.614422 113.292 31.2344)" fill="url(#paint5_linear)"/>
<ellipse rx="9.05462" ry="9.14497" transform="matrix(0.616568 0.787302 -0.788978 0.614422 78.5298 32.1655)" fill="#C4C4C4"/>
<ellipse rx="9.05462" ry="9.14497" transform="matrix(0.616568 0.787302 -0.788978 0.614422 78.5298 32.1655)" fill="url(#paint6_linear)"/>
<ellipse rx="5.06973" ry="5.12032" transform="matrix(0.616568 0.787302 -0.788978 0.614422 53.0369 32.2482)" fill="#C4C4C4"/>
<ellipse rx="5.06973" ry="5.12032" transform="matrix(0.616568 0.787302 -0.788978 0.614422 53.0369 32.2482)" fill="url(#paint7_linear)"/>
<defs>
<linearGradient id="paint0_linear" x1="55.9479" y1="66.7354" x2="75.9923" y2="66.7354" gradientUnits="userSpaceOnUse">
<stop stop-color="#79DCD2"/>
<stop offset="1" stop-color="#3FB4C7"/>
</linearGradient>
<linearGradient id="paint1_linear" x1="33.2615" y1="55.3306" x2="48.6288" y2="55.3306" gradientUnits="userSpaceOnUse">
<stop stop-color="#79DCD2"/>
<stop offset="1" stop-color="#3FB4C7"/>
</linearGradient>
<linearGradient id="paint2_linear" x1="13.557" y1="47.069" x2="25.5836" y2="47.069" gradientUnits="userSpaceOnUse">
<stop stop-color="#79DCD2"/>
<stop offset="1" stop-color="#3FB4C7"/>
</linearGradient>
<linearGradient id="paint3_linear" x1="0.85131" y1="39.1271" x2="8.20092" y2="39.1271" gradientUnits="userSpaceOnUse">
<stop stop-color="#79DCD2"/>
<stop offset="1" stop-color="#3FB4C7"/>
</linearGradient>
<linearGradient id="paint4_linear" x1="1.38035e-07" y1="15.201" x2="30.1821" y2="15.201" gradientUnits="userSpaceOnUse">
<stop stop-color="#79DCD2"/>
<stop offset="1" stop-color="#3FB4C7"/>
</linearGradient>
<linearGradient id="paint5_linear" x1="1.05826e-07" y1="11.6541" x2="23.1396" y2="11.6541" gradientUnits="userSpaceOnUse">
<stop stop-color="#79DCD2"/>
<stop offset="1" stop-color="#3FB4C7"/>
</linearGradient>
<linearGradient id="paint6_linear" x1="8.28207e-08" y1="9.12058" x2="18.1092" y2="9.12058" gradientUnits="userSpaceOnUse">
<stop stop-color="#79DCD2"/>
<stop offset="1" stop-color="#3FB4C7"/>
</linearGradient>
<linearGradient id="paint7_linear" x1="4.63718e-08" y1="5.10667" x2="10.1395" y2="5.10667" gradientUnits="userSpaceOnUse">
<stop stop-color="#79DCD2"/>
<stop offset="1" stop-color="#3FB4C7"/>
</linearGradient>
</defs>
</svg>
