<svg width="235" height="136" viewBox="0 0 235 136" fill="none" xmlns="http://www.w3.org/2000/svg">
<circle r="14.4867" transform="matrix(0.330976 -0.943639 -0.943639 -0.330976 98.3063 40.662)" fill="#C4C4C4"/>
<circle r="14.4867" transform="matrix(0.330976 -0.943639 -0.943639 -0.330976 98.3063 40.662)" fill="url(#paint0_linear)"/>
<circle r="11.1065" transform="matrix(0.330976 -0.943639 -0.943639 -0.330976 61.1281 54.7434)" fill="#C4C4C4"/>
<circle r="11.1065" transform="matrix(0.330976 -0.943639 -0.943639 -0.330976 61.1281 54.7434)" fill="url(#paint1_linear)"/>
<circle r="8.69201" transform="matrix(0.330976 -0.943639 -0.943639 -0.330976 29.5132 64.6359)" fill="#C4C4C4"/>
<circle r="8.69201" transform="matrix(0.330976 -0.943639 -0.943639 -0.330976 29.5132 64.6359)" fill="url(#paint2_linear)"/>
<circle r="5.31179" transform="matrix(0.330976 -0.943639 -0.943639 -0.330976 7.05951 74.6709)" fill="#C4C4C4"/>
<circle r="5.31179" transform="matrix(0.330976 -0.943639 -0.943639 -0.330976 7.05951 74.6709)" fill="url(#paint3_linear)"/>
<ellipse rx="19.052" ry="19.2421" transform="matrix(0.666968 -0.745086 -0.7469 -0.664937 203.098 93.7359)" fill="#C4C4C4"/>
<ellipse rx="19.052" ry="19.2421" transform="matrix(0.666968 -0.745086 -0.7469 -0.664937 203.098 93.7359)" fill="url(#paint4_linear)"/>
<ellipse rx="14.6065" ry="14.7523" transform="matrix(0.666968 -0.745086 -0.7469 -0.664937 150.468 91.9457)" fill="#C4C4C4"/>
<ellipse rx="14.6065" ry="14.7523" transform="matrix(0.666968 -0.745086 -0.7469 -0.664937 150.468 91.9457)" fill="url(#paint5_linear)"/>
<ellipse rx="11.4312" ry="11.5453" transform="matrix(0.666968 -0.745086 -0.7469 -0.664937 106.753 87.8884)" fill="#C4C4C4"/>
<ellipse rx="11.4312" ry="11.5453" transform="matrix(0.666968 -0.745086 -0.7469 -0.664937 106.753 87.8884)" fill="url(#paint6_linear)"/>
<ellipse rx="6.40039" ry="6.46425" transform="matrix(0.666968 -0.745086 -0.7469 -0.664937 74.6457 85.6701)" fill="#C4C4C4"/>
<ellipse rx="6.40039" ry="6.46425" transform="matrix(0.666968 -0.745086 -0.7469 -0.664937 74.6457 85.6701)" fill="url(#paint7_linear)"/>
<defs>
<linearGradient id="paint0_linear" x1="1.32507e-07" y1="14.4481" x2="28.9734" y2="14.4481" gradientUnits="userSpaceOnUse">
<stop stop-color="#79DCD2"/>
<stop offset="1" stop-color="#3FB4C7"/>
</linearGradient>
<linearGradient id="paint1_linear" x1="1.01589e-07" y1="11.0768" x2="22.2129" y2="11.0768" gradientUnits="userSpaceOnUse">
<stop stop-color="#79DCD2"/>
<stop offset="1" stop-color="#3FB4C7"/>
</linearGradient>
<linearGradient id="paint2_linear" x1="7.95041e-08" y1="8.66884" x2="17.384" y2="8.66884" gradientUnits="userSpaceOnUse">
<stop stop-color="#79DCD2"/>
<stop offset="1" stop-color="#3FB4C7"/>
</linearGradient>
<linearGradient id="paint3_linear" x1="4.85858e-08" y1="5.29762" x2="10.6236" y2="5.29762" gradientUnits="userSpaceOnUse">
<stop stop-color="#79DCD2"/>
<stop offset="1" stop-color="#3FB4C7"/>
</linearGradient>
<linearGradient id="paint4_linear" x1="1.74265e-07" y1="19.1908" x2="38.104" y2="19.1908" gradientUnits="userSpaceOnUse">
<stop stop-color="#79DCD2"/>
<stop offset="1" stop-color="#3FB4C7"/>
</linearGradient>
<linearGradient id="paint5_linear" x1="1.33603e-07" y1="14.7129" x2="29.213" y2="14.7129" gradientUnits="userSpaceOnUse">
<stop stop-color="#79DCD2"/>
<stop offset="1" stop-color="#3FB4C7"/>
</linearGradient>
<linearGradient id="paint6_linear" x1="1.04559e-07" y1="11.5145" x2="22.8624" y2="11.5145" gradientUnits="userSpaceOnUse">
<stop stop-color="#79DCD2"/>
<stop offset="1" stop-color="#3FB4C7"/>
</linearGradient>
<linearGradient id="paint7_linear" x1="5.85431e-08" y1="6.44702" x2="12.8008" y2="6.44702" gradientUnits="userSpaceOnUse">
<stop stop-color="#79DCD2"/>
<stop offset="1" stop-color="#3FB4C7"/>
</linearGradient>
</defs>
</svg>
