<svg width="53" height="53" viewBox="0 0 53 53" fill="none" xmlns="http://www.w3.org/2000/svg">
<path d="M26.5 0C16.2284 0 7.901 8.32742 7.901 18.5989C7.901 19.3852 7.96408 20.1516 8.06023 20.9112C9.64947 35.4394 25.2923 52.1838 25.2923 52.1838C25.571 52.4957 25.8397 52.6881 26.0985 52.8273L26.1118 52.834L26.6327 52.9999L27.1536 52.834L27.1669 52.8273C27.4257 52.688 27.6945 52.4856 27.9731 52.1838C27.9731 52.1838 43.3903 35.4095 44.943 20.8782C45.0359 20.1284 45.099 19.3686 45.099 18.5956C45.0956 8.32742 36.7715 0 26.5 0ZM26.5 30.5625C19.9044 30.5625 14.5365 25.1945 14.5365 18.599C14.5365 12.0034 19.9044 6.63548 26.5 6.63548C33.0955 6.63548 38.4602 12.0034 38.4602 18.599C38.4602 25.1945 33.0955 30.5625 26.5 30.5625Z" fill="#383737"/>
</svg>
