<svg width="58" height="58" viewBox="0 0 58 58" fill="none" xmlns="http://www.w3.org/2000/svg">
<path d="M5.07573 39.2453L12.1613 37.6101V35.7679C11.4409 35.1901 10.8339 34.4798 10.3671 33.6772H9.35484C6.77586 33.6772 4.67742 31.5788 4.67742 28.9998C4.67742 27.9556 5.03279 27.0014 5.6129 26.2221V22.4514C5.6129 16.2611 10.6484 11.2256 16.8387 11.2256C23.029 11.2256 28.0645 16.2611 28.0645 22.4514V26.2221C28.6446 27.0014 29 27.9565 29 28.9998C29 31.5788 26.9016 33.6772 24.3226 33.6772H23.3104C22.8444 34.4798 22.2365 35.1901 21.5161 35.7679V37.6101L28.6017 39.2453C29.0644 39.3518 29.5089 39.5185 29.9355 39.7213V34.6127C29.9355 33.0656 31.1948 31.8062 32.7419 31.8062H55.1935C56.7407 31.8062 58 33.0656 58 34.6127V51.4514C58 52.9985 56.7407 54.2578 55.1935 54.2578H47.7097V56.1288H49.5806V57.9998H0V45.6261C0 42.5588 2.08702 39.9346 5.07573 39.2453ZM20.793 39.3641L18.5123 41.0743L20.8182 42.4579L21.3142 39.4838L20.793 39.3641ZM17.8491 46.774H15.8274L15.0481 56.1288H18.6284L17.8491 46.774ZM15.6424 44.903H18.0359L18.5731 43.2919L16.8387 42.2519L15.1052 43.2919L15.6424 44.903ZM15.1642 41.0743L12.8835 39.3641L12.2239 39.5167L12.8172 42.4821L15.1642 41.0743ZM9.35484 31.8062H9.60104C9.44574 31.2065 9.35484 30.5825 9.35484 29.9353V26.1933C7.80773 26.1933 6.54839 27.4527 6.54839 28.9998C6.54839 30.5469 7.80773 31.8062 9.35484 31.8062ZM16.8387 13.0966C11.6803 13.0966 7.48387 17.293 7.48387 22.4514V24.7188C8.05804 24.4662 8.68885 24.3224 9.35484 24.3224V22.4514H11.2258V22.9735C11.8749 23.5385 12.6523 23.9405 13.4841 24.1502C13.4476 24.1145 13.4074 24.0839 13.3708 24.0483L14.6937 22.7255C15.3916 23.4234 16.2755 23.9108 17.2261 24.1502C17.1895 24.1145 17.1493 24.0839 17.1128 24.0483L18.4356 22.7255C19.4506 23.7404 20.8556 24.3224 22.2908 24.3224H22.4516V22.4514H24.3226V24.3224C24.9886 24.3224 25.6194 24.4662 26.1935 24.7188V22.4514C26.1935 17.293 21.9971 13.0966 16.8387 13.0966ZM24.3226 31.8062C25.8697 31.8062 27.129 30.5469 27.129 28.9998C27.129 27.4527 25.8697 26.1933 24.3226 26.1933V29.9353C24.3226 30.5825 24.2317 31.2065 24.0764 31.8062H24.3226ZM22.4516 29.9353V26.1933H22.2908C21.3823 26.1933 20.4852 26.0138 19.6452 25.6872V26.1933H18.5489C17.6404 26.1933 16.7432 26.0138 15.9032 25.6872V26.1933H14.807C13.5504 26.1933 12.3139 25.8558 11.2258 25.2473V29.9353C11.2258 30.5921 11.3455 31.2197 11.5533 31.8062H16.8387V33.6772H12.6665C13.6947 34.8223 15.1811 35.5482 16.8387 35.5482C19.9343 35.5482 22.4516 33.0309 22.4516 29.9353ZM16.8387 37.4191C15.8461 37.4191 14.8992 37.2209 14.0323 36.8683V37.8869L16.8387 39.9917L19.6452 37.8869V36.8683C18.7782 37.2209 17.8313 37.4191 16.8387 37.4191ZM28.1815 41.0683L23.1409 39.9058L22.2132 45.4763L20.2157 44.2781L19.6575 45.9527L20.5057 56.1288H25.2581V45.8385H27.129V56.1288H31.8065V54.0856C30.7202 53.6983 29.9355 52.6692 29.9355 51.4514V41.8947C29.4152 41.5027 28.8196 41.2163 28.1815 41.0683ZM40.2258 54.2578H33.6774V56.1288H40.2258V54.2578ZM55.1935 52.3869C55.7097 52.3869 56.129 51.9676 56.129 51.4514V34.6127C56.129 34.0965 55.7097 33.6772 55.1935 33.6772H32.7419C32.2258 33.6772 31.8065 34.0965 31.8065 34.6127V51.4514C31.8065 51.9676 32.2258 52.3869 32.7419 52.3869H40.2258V50.5159C40.2258 48.4522 41.904 46.774 43.9677 46.774C46.0315 46.774 47.7097 48.4522 47.7097 50.5159V52.3869H55.1935ZM45.8387 50.5159C45.8387 49.484 44.9996 48.6449 43.9677 48.6449C42.9359 48.6449 42.0968 49.484 42.0968 50.5159V56.1288H45.8387V50.5159ZM1.87097 56.1288H6.54839V45.8385H8.41935V56.1288H13.1717L14.019 45.9527L13.4617 44.2781L11.5044 45.453L10.4018 39.9374L5.49597 41.0693C3.36235 41.5617 1.87097 43.4354 1.87097 45.6261V56.1288Z" fill="black"/>
<path d="M34.613 19.1224C34.613 17.9129 35.384 16.8426 36.5314 16.4603L40.2259 15.2288V14.0083C39.0967 13.1532 38.3549 11.8117 38.3549 10.2906V8.41961C38.3549 5.84063 40.4533 3.74219 43.0323 3.74219C45.6113 3.74219 47.7097 5.84063 47.7097 8.41961V10.2906C47.7097 11.8126 46.9679 13.1541 45.8388 14.0083V15.2288L49.5332 16.4603C50.6806 16.8435 51.4517 17.9129 51.4517 19.1224V24.3228H34.613V19.1224ZM45.8388 8.41961C45.8388 6.8725 44.5794 5.61316 43.0323 5.61316C41.4852 5.61316 40.2259 6.8725 40.2259 8.41961V10.2906C40.2259 11.8377 41.4852 13.097 43.0323 13.097C44.5794 13.097 45.8388 11.8377 45.8388 10.2906V8.41961ZM36.4839 22.4519H49.5807V19.1224C49.5807 18.7191 49.3244 18.3628 48.9407 18.2349L43.9678 16.5781V14.8734C43.6654 14.9351 43.3521 14.968 43.0323 14.968C42.7126 14.968 42.3992 14.9351 42.0968 14.8734V16.5781L37.1239 18.2349C36.7402 18.3628 36.4839 18.7204 36.4839 19.1224V22.4519Z" fill="black"/>
<path d="M43.0323 29.9355C34.7796 29.9355 28.0645 23.2204 28.0645 14.9677C28.0645 6.71511 34.7796 0 43.0323 0C51.2849 0 58 6.71511 58 14.9677C58 23.2204 51.2849 29.9355 43.0323 29.9355ZM43.0323 1.87097C35.8101 1.87097 29.9355 7.7456 29.9355 14.9677C29.9355 22.1899 35.8101 28.0645 43.0323 28.0645C50.2544 28.0645 56.129 22.1899 56.129 14.9677C56.129 7.7456 50.2544 1.87097 43.0323 1.87097Z" fill="black"/>
<path d="M23.3872 5.61328H21.5162V7.48425H23.3872V5.61328Z" fill="black"/>
<path d="M17.7742 5.61328H15.9032V7.48425H17.7742V5.61328Z" fill="black"/>
<path d="M12.1614 5.61328H10.2904V7.48425H12.1614V5.61328Z" fill="black"/>
</svg>
