<svg width="48" height="48" viewBox="0 0 48 48" fill="none" xmlns="http://www.w3.org/2000/svg">
<path d="M47.9903 18.3497C47.9854 18.2946 47.9744 18.2401 47.9575 18.1873C47.9466 18.1402 47.9313 18.0942 47.912 18.0497C47.8896 18.0063 47.8627 17.9652 47.832 17.9273C47.8011 17.8822 47.7654 17.8406 47.7256 17.8032C47.7127 17.7921 47.7072 17.7768 47.6936 17.7656L39.9996 11.7902V5.59711C39.9996 4.27161 38.925 3.19699 37.5995 3.19699H28.9294L25.458 0.501635C24.6004 -0.167212 23.3978 -0.167212 22.5402 0.501635L19.068 3.19699H10.398C9.07246 3.19699 7.99784 4.27151 7.99784 5.59711V11.7903L0.306297 17.7657C0.292702 17.777 0.287077 17.7922 0.274326 17.8033C0.234481 17.8406 0.19876 17.8823 0.167915 17.9274C0.137163 17.9653 0.110349 18.0063 0.087942 18.0498C0.0685347 18.0942 0.0533465 18.1403 0.0423772 18.1874C0.0256888 18.2395 0.0147195 18.2931 0.00956299 18.3475C0.00956299 18.3643 0 18.3787 0 18.3955V45.5991C0.00112506 46.108 0.165758 46.603 0.469618 47.0111C0.474399 47.0183 0.475243 47.0272 0.480774 47.0335C0.4864 47.0399 0.4984 47.0471 0.506369 47.0559C0.95583 47.6473 1.65487 47.996 2.39768 47.9992H45.5999C46.3456 47.997 47.0475 47.6466 47.4976 47.052C47.5039 47.044 47.5136 47.0416 47.5191 47.0336C47.5248 47.0257 47.5255 47.0184 47.5304 47.0112C47.8342 46.603 47.9989 46.108 48 45.5992V18.3977C47.9999 18.3809 47.9912 18.3665 47.9903 18.3497ZM23.5187 1.76404C23.7981 1.54203 24.1937 1.54203 24.4731 1.76404L26.3187 3.1969H21.6785L23.5187 1.76404ZM2.59926 46.3992L23.5188 30.1495C23.7983 29.9279 24.1937 29.9279 24.4732 30.1495L45.3982 46.3992H2.59926ZM46.3999 45.1519L25.458 28.887C24.6002 28.2187 23.398 28.2187 22.5402 28.887L1.59758 45.1519V19.6162L14.7079 29.7967C15.0572 30.0676 15.5599 30.004 15.8308 29.6547C16.1016 29.3053 16.0381 28.8026 15.6887 28.5318L2.36965 18.1897L7.99794 13.8158V19.9977C7.99794 20.4396 8.35617 20.7978 8.79795 20.7978C9.23981 20.7978 9.59796 20.4395 9.59796 19.9977V5.59702C9.59796 5.15515 9.9561 4.79701 10.398 4.79701H37.5993C38.0412 4.79701 38.3993 5.15515 38.3993 5.59702V19.9977C38.3993 20.4396 38.7575 20.7978 39.1993 20.7978C39.6412 20.7978 39.9993 20.4395 39.9993 19.9977V13.8158L45.6276 18.1897L32.2854 28.5502C32.0559 28.7242 31.9375 29.0081 31.9755 29.2935C32.0136 29.579 32.2021 29.822 32.4692 29.9298C32.7363 30.0375 33.0408 29.9934 33.2663 29.8142L46.3997 19.6162V45.1519H46.3999Z" fill="black"/>
<path d="M33.5997 19.1983V15.9981C33.5997 10.6958 29.3014 6.39746 23.9991 6.39746C18.6968 6.39746 14.3984 10.6958 14.3984 15.9981C14.3984 21.3004 18.6968 25.5988 23.9991 25.5988C24.441 25.5988 24.7991 25.2406 24.7991 24.7987C24.7991 24.3569 24.441 23.9987 23.9991 23.9987C19.5805 23.9987 15.9986 20.4167 15.9986 15.9982C15.9986 11.5797 19.5805 7.99769 23.9991 7.99769C28.4176 7.99769 31.9996 11.5797 31.9996 15.9982V19.1984C31.9996 20.0821 31.2832 20.7985 30.3995 20.7985C29.5157 20.7985 28.7993 20.0821 28.7993 19.1984V15.9982C28.7993 15.5563 28.4412 15.1982 27.9993 15.1982C27.5574 15.1982 27.1993 15.5563 27.1993 15.9982C27.1993 17.7656 25.7665 19.1984 23.9991 19.1984C22.2317 19.1984 20.7989 17.7656 20.7989 15.9982C20.7989 14.2308 22.2317 12.798 23.9991 12.798C24.441 12.798 24.7991 12.4399 24.7991 11.998C24.7991 11.5561 24.441 11.198 23.9991 11.198C21.8507 11.1932 19.9606 12.6165 19.3718 14.6827C18.783 16.7489 19.6388 18.9547 21.467 20.0832C23.2953 21.2116 25.6506 20.9879 27.2337 19.5353C27.4079 21.2273 28.8784 22.4853 30.5769 22.3954C32.2755 22.3054 33.6051 20.8992 33.5997 19.1983Z" fill="black"/>
</svg>
