<svg viewBox="0 0 17 24" fill="none" xmlns="http://www.w3.org/2000/svg">
<path d="M10.6048 2.58471C10.0634 1.78856 9.58574 1.05609 9.13989 0.387317C9.0762 0.291778 8.98066 0.196239 8.88512 0.132547C8.50296 -0.122224 7.99342 0.0051614 7.73865 0.387317C7.32465 1.05609 6.84696 1.75671 6.27372 2.58471C3.75786 6.27889 0 11.852 0 15.0366C0 17.3614 0.955389 19.4633 2.48401 20.9919C4.01263 22.4887 6.11449 23.4441 8.43927 23.4441C10.7641 23.4441 12.8659 22.4887 14.3945 20.96C15.9232 19.4314 16.8785 17.3296 16.8785 15.0048C16.8785 11.8201 13.1207 6.27889 10.6048 2.58471ZM13.2481 19.8136C12.0061 21.0556 10.3182 21.788 8.43927 21.788C6.56034 21.788 4.87249 21.0237 3.63048 19.8136C2.38847 18.5716 1.65601 16.8837 1.65601 15.0048C1.65601 12.3297 5.25464 7.01135 7.64311 3.47641C7.92973 3.06241 8.1845 2.64841 8.43927 2.2981C8.69404 2.64841 8.94881 3.06241 9.23543 3.47641C11.6239 7.0432 15.2225 12.3297 15.2225 15.0048C15.2225 16.8837 14.4582 18.5716 13.2481 19.8136Z" fill="white"/>
<path d="M13.3754 14.4317C12.9295 14.3999 12.5474 14.7502 12.5155 15.196C12.4837 15.8966 12.2607 16.5654 11.9104 17.1386C11.5601 17.7119 11.0506 18.2214 10.4455 18.5399C10.0633 18.7628 9.90411 19.2723 10.127 19.6545C10.3818 20.1003 10.8913 20.2277 11.2735 20.0048C12.1334 19.5271 12.834 18.8265 13.3117 18.0303C13.8212 17.2342 14.1078 16.2788 14.1397 15.2916C14.1715 14.8457 13.8212 14.4635 13.3754 14.4317Z" fill="white"/>
</svg>
