<svg width="15" height="30" viewBox="0 0 15 30" fill="none" xmlns="http://www.w3.org/2000/svg">
<path d="M13.8637 0.00483343L10.2118 0.00694805C10.2118 0.00694805 10.1378 0 10.0047 0C9.25538 0 5.46596 0.259155 4.43497 5.31711C4.41883 5.37322 4.072 6.63928 4.06645 9.58367H0.602102C0.294831 9.58367 0.0454102 9.8941 0.0454102 10.2766V14.2501C0.0454102 14.6326 0.294831 14.943 0.602102 14.943H4.39098V29.2139C4.39098 29.5964 4.64037 29.9069 4.94767 29.9069H9.28602C9.59329 29.9069 9.84274 29.5964 9.84274 29.2139V14.9575H13.6438C13.9512 14.9575 14.2006 14.6471 14.2006 14.2646V10.2766C14.2006 9.8941 13.9512 9.58367 13.6438 9.58367H9.85048V7.87826C9.85048 6.74248 10.4295 5.52914 12.055 5.52914H13.8637C14.171 5.52914 14.4204 5.2187 14.4204 4.83618V0.697788C14.4204 0.315306 14.1716 0.00483343 13.8637 0.00483343ZM13.307 4.14323H12.055C9.76308 4.14323 8.73712 6.01909 8.73712 7.8783V10.2767C8.73712 10.6592 8.98652 10.9696 9.29379 10.9696H13.0871V13.5717H9.28602C8.97869 13.5717 8.7293 13.8821 8.7293 14.2647V28.521H5.50436V14.2501C5.50436 13.8676 5.25497 13.5571 4.94767 13.5571H1.15879V10.9696H4.62757C4.77731 10.9696 4.92037 10.8948 5.02506 10.7617C5.12975 10.6287 5.18705 10.4492 5.18429 10.2628C5.13475 7.11122 5.48267 5.78418 5.49939 5.71696C6.32049 1.69846 9.15573 1.38591 10.0047 1.38591C10.0821 1.38591 10.1283 1.3887 10.1734 1.39078H13.307V4.14323Z" fill="black"/>
</svg>
