<svg width="383" height="437" viewBox="0 0 383 437" fill="none" xmlns="http://www.w3.org/2000/svg">
<g opacity="0.3">
<circle cx="312.808" cy="137.743" r="54.022" transform="rotate(20.1982 312.808 137.743)" fill="#C4C4C4"/>
<circle cx="312.808" cy="137.743" r="54.022" transform="rotate(20.1982 312.808 137.743)" fill="url(#paint0_linear)"/>
<circle cx="184.068" cy="211.261" r="41.4169" transform="rotate(20.1982 184.068 211.261)" fill="#C4C4C4"/>
<circle cx="184.068" cy="211.261" r="41.4169" transform="rotate(20.1982 184.068 211.261)" fill="url(#paint1_linear)"/>
<circle cx="80.5835" cy="278.72" r="32.4132" transform="rotate(20.1982 80.5835 278.72)" fill="#C4C4C4"/>
<circle cx="80.5835" cy="278.72" r="32.4132" transform="rotate(20.1982 80.5835 278.72)" fill="url(#paint2_linear)"/>
<circle cx="-1.57106" cy="319.488" r="19.8081" transform="rotate(20.1982 -1.57106 319.488)" fill="#C4C4C4"/>
<circle cx="-1.57106" cy="319.488" r="19.8081" transform="rotate(20.1982 -1.57106 319.488)" fill="url(#paint3_linear)"/>
</g>
<defs>
<linearGradient id="paint0_linear" x1="258.786" y1="137.599" x2="366.83" y2="137.599" gradientUnits="userSpaceOnUse">
<stop stop-color="#79DCD2"/>
<stop offset="1" stop-color="#3FB4C7"/>
</linearGradient>
<linearGradient id="paint1_linear" x1="142.651" y1="211.15" x2="225.485" y2="211.15" gradientUnits="userSpaceOnUse">
<stop stop-color="#79DCD2"/>
<stop offset="1" stop-color="#3FB4C7"/>
</linearGradient>
<linearGradient id="paint2_linear" x1="48.1703" y1="278.633" x2="112.997" y2="278.633" gradientUnits="userSpaceOnUse">
<stop stop-color="#79DCD2"/>
<stop offset="1" stop-color="#3FB4C7"/>
</linearGradient>
<linearGradient id="paint3_linear" x1="-21.3791" y1="319.435" x2="18.237" y2="319.435" gradientUnits="userSpaceOnUse">
<stop stop-color="#79DCD2"/>
<stop offset="1" stop-color="#3FB4C7"/>
</linearGradient>
</defs>
</svg>
