<svg width="44" height="44" viewBox="0 0 44 44" fill="none" xmlns="http://www.w3.org/2000/svg">
<path d="M39.6855 14.1682L23.5938 30.249C23.0807 30.7621 23.0807 31.5918 23.5938 32.1049C23.8449 32.356 24.1833 32.487 24.5218 32.487C24.8602 32.487 25.1877 32.356 25.4497 32.1049L41.5414 16.0132C42.0545 15.5001 42.0545 14.6704 41.5414 14.1573C41.0283 13.6551 40.1986 13.6551 39.6855 14.1682Z" fill="#CE1946"/>
<path d="M35.4716 24.9979C33.6485 26.821 33.6485 29.8014 35.4716 31.6245C36.3559 32.5088 37.5349 33 38.7904 33C40.0458 33 41.2249 32.5088 42.1092 31.6245C43.9323 29.8014 43.9323 26.821 42.1092 24.9979C41.2249 24.1136 40.0458 23.6223 38.7904 23.6223C37.5349 23.6223 36.3668 24.1136 35.4716 24.9979ZM40.2533 29.7795C39.8603 30.1725 39.3472 30.38 38.7904 30.38C38.2336 30.38 37.7205 30.1616 37.3275 29.7795C36.5196 28.9717 36.5196 27.6616 37.3275 26.8538C37.7205 26.4607 38.2336 26.2533 38.7904 26.2533C39.3472 26.2533 39.8603 26.4717 40.2533 26.8538C41.0611 27.6616 41.0611 28.9717 40.2533 29.7795Z" fill="#CE1946"/>
<path d="M26.6943 13C25.4389 13 24.2598 13.4913 23.3755 14.3755C22.4913 15.2598 22 16.4389 22 17.6943C22 18.9498 22.4913 20.1288 23.3755 21.0131C24.2598 21.8974 25.4389 22.3886 26.6943 22.3886C27.9498 22.3886 29.1288 21.8974 30.0131 21.0131C30.8974 20.1288 31.3887 18.9498 31.3887 17.6943C31.3887 16.4389 30.8974 15.2598 30.0131 14.3755C29.1179 13.4913 27.9498 13 26.6943 13ZM28.1572 19.1572C27.7642 19.5502 27.2511 19.7576 26.6943 19.7576C26.1376 19.7576 25.6245 19.5393 25.2314 19.1572C24.8384 18.7642 24.631 18.2511 24.631 17.6943C24.631 17.1376 24.8493 16.6245 25.2314 16.2314C25.6245 15.8384 26.1376 15.631 26.6943 15.631C27.2511 15.631 27.7642 15.8493 28.1572 16.2314C28.5502 16.6245 28.7576 17.1376 28.7576 17.6943C28.7576 18.2402 28.5502 18.7642 28.1572 19.1572Z" fill="#CE1946"/>
<path d="M9.468 19.556C13.02 19.556 15.648 20.252 17.352 21.644C19.056 23.012 19.908 24.884 19.908 27.26C19.908 28.772 19.536 30.14 18.792 31.364C18.048 32.588 16.932 33.56 15.444 34.28C13.956 35 12.12 35.36 9.936 35.36C8.136 35.36 6.396 35.108 4.716 34.604C3.036 34.076 1.62 33.356 0.468 32.444L2.448 28.808C3.384 29.576 4.5 30.188 5.796 30.644C7.116 31.076 8.472 31.292 9.864 31.292C11.52 31.292 12.816 30.956 13.752 30.284C14.712 29.588 15.192 28.64 15.192 27.44C15.192 26.144 14.676 25.172 13.644 24.524C12.636 23.852 10.896 23.516 8.424 23.516H2.34L3.636 9.8H18.432V13.724H7.596L7.056 19.556H9.468Z" fill="black"/>
</svg>
