<svg width="250" height="224" viewBox="0 0 250 224" fill="none" xmlns="http://www.w3.org/2000/svg">
<g opacity="0.5">
<circle cx="38.8113" cy="59.4768" r="34.5547" transform="rotate(-97.5808 38.8113 59.4768)" fill="#C4C4C4"/>
<circle cx="38.8113" cy="59.4768" r="34.5547" transform="rotate(-97.5808 38.8113 59.4768)" fill="url(#paint0_linear)"/>
<circle cx="118.796" cy="110.417" r="26.492" transform="rotate(-97.5808 118.796 110.417)" fill="#C4C4C4"/>
<circle cx="118.796" cy="110.417" r="26.492" transform="rotate(-97.5808 118.796 110.417)" fill="url(#paint1_linear)"/>
<circle cx="187.823" cy="148.871" r="20.7328" transform="rotate(-97.5808 187.823 148.871)" fill="#C4C4C4"/>
<circle cx="187.823" cy="148.871" r="20.7328" transform="rotate(-97.5808 187.823 148.871)" fill="url(#paint2_linear)"/>
<circle cx="235.386" cy="183.211" r="12.6701" transform="rotate(-97.5808 235.386 183.211)" fill="#C4C4C4"/>
<circle cx="235.386" cy="183.211" r="12.6701" transform="rotate(-97.5808 235.386 183.211)" fill="url(#paint3_linear)"/>
</g>
<defs>
<linearGradient id="paint0_linear" x1="4.25659" y1="59.3846" x2="73.3661" y2="59.3846" gradientUnits="userSpaceOnUse">
<stop stop-color="#79DCD2"/>
<stop offset="1" stop-color="#3FB4C7"/>
</linearGradient>
<linearGradient id="paint1_linear" x1="92.3038" y1="110.347" x2="145.288" y2="110.347" gradientUnits="userSpaceOnUse">
<stop stop-color="#79DCD2"/>
<stop offset="1" stop-color="#3FB4C7"/>
</linearGradient>
<linearGradient id="paint2_linear" x1="167.09" y1="148.816" x2="208.555" y2="148.816" gradientUnits="userSpaceOnUse">
<stop stop-color="#79DCD2"/>
<stop offset="1" stop-color="#3FB4C7"/>
</linearGradient>
<linearGradient id="paint3_linear" x1="222.716" y1="183.178" x2="248.056" y2="183.178" gradientUnits="userSpaceOnUse">
<stop stop-color="#79DCD2"/>
<stop offset="1" stop-color="#3FB4C7"/>
</linearGradient>
</defs>
</svg>
