<svg width="29" height="29" viewBox="0 0 29 29" fill="none" xmlns="http://www.w3.org/2000/svg">
<path d="M21.1499 0H7.85002C3.52145 0 0 3.52145 0 7.85002V21.1501C0 25.4785 3.52145 28.9999 7.85002 28.9999H21.1501C25.4785 28.9999 28.9999 25.4785 28.9999 21.1501V7.85002C28.9999 3.52145 25.4785 0 21.1499 0V0ZM27.2998 21.1501C27.2998 24.5411 24.5411 27.2998 21.1499 27.2998H7.85002C4.45889 27.2998 1.7001 24.5411 1.7001 21.1501V7.85002C1.7001 4.45889 4.45889 1.7001 7.85002 1.7001H21.1501C24.5411 1.7001 27.2998 4.45889 27.2998 7.85002V21.1501Z" fill="black"/>
<path d="M14.5 6.5708C10.1276 6.5708 6.57056 10.1279 6.57056 14.5003C6.57056 18.8726 10.1276 22.4297 14.5 22.4297C18.8724 22.4297 22.4295 18.8726 22.4295 14.5003C22.4295 10.1279 18.8724 6.5708 14.5 6.5708V6.5708ZM14.5 20.7296C11.0653 20.7296 8.27066 17.9352 8.27066 14.5003C8.27066 11.0655 11.0653 8.2709 14.5 8.2709C17.9349 8.2709 20.7294 11.0655 20.7294 14.5003C20.7294 17.9352 17.9349 20.7296 14.5 20.7296V20.7296Z" fill="black"/>
<path d="M22.6191 3.75439C21.3269 3.75439 20.276 4.80556 20.276 6.09745C20.276 7.38957 21.3269 8.44074 22.6191 8.44074C23.9112 8.44074 24.9623 7.38957 24.9623 6.09745C24.9623 4.80534 23.9112 3.75439 22.6191 3.75439ZM22.6191 6.74041C22.2646 6.74041 21.9761 6.4519 21.9761 6.09745C21.9761 5.74279 22.2646 5.4545 22.6191 5.4545C22.9737 5.4545 23.2622 5.74279 23.2622 6.09745C23.2622 6.4519 22.9737 6.74041 22.6191 6.74041Z" fill="black"/>
</svg>
