<svg width="434" height="447" viewBox="0 0 434 447" fill="none" xmlns="http://www.w3.org/2000/svg">
<g opacity="0.9">
<circle cx="72.1096" cy="268.04" r="51.9863" transform="rotate(-146.24 72.1096 268.04)" fill="#C4C4C4"/>
<circle cx="72.1096" cy="268.04" r="51.9863" transform="rotate(-146.24 72.1096 268.04)" fill="url(#paint0_linear)"/>
<circle cx="209.134" cy="228.317" r="39.8562" transform="rotate(-146.24 209.134 228.317)" fill="#C4C4C4"/>
<circle cx="209.134" cy="228.317" r="39.8562" transform="rotate(-146.24 209.134 228.317)" fill="url(#paint1_linear)"/>
<circle cx="321.165" cy="188.563" r="31.1918" transform="rotate(-146.24 321.165 188.563)" fill="#C4C4C4"/>
<circle cx="321.165" cy="188.563" r="31.1918" transform="rotate(-146.24 321.165 188.563)" fill="url(#paint2_linear)"/>
<circle cx="407.219" cy="168.963" r="19.0617" transform="rotate(-146.24 407.219 168.963)" fill="#C4C4C4"/>
<circle cx="407.219" cy="168.963" r="19.0617" transform="rotate(-146.24 407.219 168.963)" fill="url(#paint3_linear)"/>
</g>
<defs>
<linearGradient id="paint0_linear" x1="20.1232" y1="267.901" x2="124.096" y2="267.901" gradientUnits="userSpaceOnUse">
<stop stop-color="#79DCD2"/>
<stop offset="1" stop-color="#3FB4C7"/>
</linearGradient>
<linearGradient id="paint1_linear" x1="169.278" y1="228.21" x2="248.99" y2="228.21" gradientUnits="userSpaceOnUse">
<stop stop-color="#79DCD2"/>
<stop offset="1" stop-color="#3FB4C7"/>
</linearGradient>
<linearGradient id="paint2_linear" x1="289.974" y1="188.479" x2="352.357" y2="188.479" gradientUnits="userSpaceOnUse">
<stop stop-color="#79DCD2"/>
<stop offset="1" stop-color="#3FB4C7"/>
</linearGradient>
<linearGradient id="paint3_linear" x1="388.158" y1="168.913" x2="426.281" y2="168.913" gradientUnits="userSpaceOnUse">
<stop stop-color="#79DCD2"/>
<stop offset="1" stop-color="#3FB4C7"/>
</linearGradient>
</defs>
</svg>
