<svg width="207" height="202" viewBox="0 0 207 202" fill="none" xmlns="http://www.w3.org/2000/svg">
<path fill-rule="evenodd" clip-rule="evenodd" d="M133.701 87.6332C131.969 81.6546 128.348 76.7774 123.154 73.0014C117.959 69.2255 111.82 67.3376 104.894 67.3376C97.3377 67.3376 90.7262 69.5402 85.0593 73.6308C81.4387 76.3054 78.133 80.868 75.1422 87.6332H133.701ZM103.634 178.885C146.766 178.885 181.712 143.643 181.712 100.062C181.712 56.4817 146.766 21.2396 103.634 21.2396C60.5026 21.2396 25.5565 56.4817 25.5565 100.062C25.399 143.643 60.5026 178.885 103.634 178.885ZM103.634 201.069C160.618 201.069 206.898 156.072 206.898 100.534C206.898 44.9966 160.618 0 103.634 0C46.65 0 0.370029 44.9966 0.370029 100.534C0.212614 156.072 46.4926 201.069 103.634 201.069ZM160.776 108.873H74.0402C75.2995 116.425 78.6053 122.561 84.1148 127.123C89.6244 131.686 96.3932 133.888 104.894 133.888C114.968 133.888 123.626 130.27 130.867 123.347L153.535 134.046C147.868 142.07 141.099 148.048 133.228 151.824C125.358 155.6 115.913 157.645 105.051 157.645C88.2076 157.645 74.5125 152.296 63.8083 141.755C53.1041 131.056 47.9094 117.841 47.9094 101.793C47.9094 85.4306 53.2615 71.7428 63.8083 60.887C74.3551 50.0312 87.7353 44.6819 103.634 44.6819C120.635 44.6819 134.33 50.1885 145.034 60.887C155.581 71.7428 160.933 86.0599 160.933 103.838L160.776 108.873Z" fill="white" fill-opacity="0.6"/>
</svg>
