<svg width="87" height="87" viewBox="0 0 87 87" fill="none" xmlns="http://www.w3.org/2000/svg">
<path d="M20.3001 57.2751C15.502 57.2751 11.6001 61.1771 11.6001 65.9751C11.6001 70.7732 15.502 74.6752 20.3001 74.6752C25.0982 74.6752 29.0001 70.7732 29.0001 65.9751C29.0001 61.1771 25.098 57.2751 20.3001 57.2751ZM20.3001 71.7751C17.1013 71.7751 14.5002 69.1738 14.5002 65.9751C14.5002 62.7764 17.1015 60.1752 20.3001 60.1752C23.4987 60.1752 26.1 62.7765 26.1 65.9751C26.1 69.1738 23.4987 71.7751 20.3001 71.7751Z" fill="black"/>
<path d="M69.6 57.2751C64.8019 57.2751 60.9 61.1771 60.9 65.9751C60.9 70.7732 64.8019 74.6752 69.6 74.6752C74.3981 74.6752 78.3 70.7732 78.3 65.9751C78.3 61.1771 74.3981 57.2751 69.6 57.2751ZM69.6 71.7751C66.4012 71.7751 63.8001 69.1738 63.8001 65.9751C63.8001 62.7764 66.4014 60.1752 69.6 60.1752C72.7988 60.1752 75.4 62.7765 75.4 65.9751C75.4 69.1738 72.7988 71.7751 69.6 71.7751Z" fill="black"/>
<path d="M86.7695 49.2408L73.7195 28.9407C73.4527 28.526 72.993 28.2751 72.4999 28.2751H56.55C55.7482 28.2751 55.1001 28.9248 55.1001 29.7251V65.975C55.1001 66.7769 55.7482 67.425 56.55 67.425H62.35V64.5249H58V31.1752H71.7083L84.1 50.4515V64.5253H76.8499V67.4251H85.5499C86.3518 67.4251 86.9999 66.7771 86.9999 65.9752V50.0251C87 49.7482 86.9203 49.4741 86.7695 49.2408Z" fill="black"/>
<path d="M63.8 47.1247V36.9748H75.4001V34.0747H62.3501C61.5482 34.0747 60.9001 34.7243 60.9001 35.5247V48.5747C60.9001 49.3765 61.5482 50.0246 62.3501 50.0246H84.1001V47.1246H63.8V47.1247Z" fill="black"/>
<path d="M56.55 18.125H1.44994C0.649611 18.125 0 18.7746 0 19.5749V65.975C0 66.7769 0.649611 67.4249 1.44994 67.4249H13.05V64.5249H2.90006V21.0249H55.1001V64.5249H27.5499V67.4249H56.55C57.3519 67.4249 57.9999 66.7769 57.9999 65.975V19.5749C57.9999 18.7746 57.3519 18.125 56.55 18.125Z" fill="black"/>
<path d="M10.15 58.7249H1.44995V61.6249H10.15V58.7249Z" fill="black"/>
<path d="M55.1 58.7249H30.45V61.6249H55.1V58.7249Z" fill="black"/>
<path d="M85.5499 58.7249H79.75V61.6249H85.5499V58.7249Z" fill="black"/>
<path d="M56.55 23.9253H5.79993V26.8253H56.55V23.9253Z" fill="black"/>
<path d="M21.75 64.5251H18.85V67.4252H21.75V64.5251Z" fill="black"/>
<path d="M71.0501 64.5251H68.15V67.4252H71.0501V64.5251Z" fill="black"/>
<path d="M26.1 12.3247H5.79993V15.2248H26.1V12.3247Z" fill="black"/>
<path d="M2.90006 12.3247H0V15.2248H2.90006V12.3247Z" fill="black"/>
<g clip-path="url(#clip0)">
<path d="M27.1388 34.4514L27.0155 34.442C27.0102 34.4469 27.0052 34.4519 27.0003 34.457L27.0106 34.5967M27.1388 34.4514L27.1864 34.6616L27.0106 34.5967M27.1388 34.4514L27.1218 34.376L27.1509 34.4523M27.1388 34.4514L27.1509 34.4523M27.0106 34.5967L27.0107 34.5978M27.0106 34.5967L26.9308 34.5672L27.0107 34.5978M27.097 35.3484H26.9253C26.9568 35.4843 27.0024 35.6164 27.0612 35.7424L27.5721 36.1956M27.097 35.3484L27.1016 35.367C27.1046 35.379 27.1089 35.3959 27.1146 35.4151L27.1145 35.4151L27.1161 35.4203C27.1211 35.4367 27.1265 35.4535 27.1322 35.4707V35.4819L27.1676 35.5708C27.2599 35.8032 27.3979 36.0152 27.5739 36.1936L27.5721 36.1956M27.097 35.3484L27.0958 35.3437L27.0938 35.3364L27.0895 35.3204C27.0861 35.3076 27.0813 35.2889 27.0768 35.2664M27.097 35.3484H27.3414H27.3511H27.4432M27.5721 36.1956L27.466 36.3174L27.5798 36.2025M27.5721 36.1956L27.5798 36.2025M27.5798 36.2025L27.5812 36.201L28.0723 35.1278L28.0628 35.1307C28.0465 35.1223 28.03 35.1142 28.0134 35.1065C28.0117 35.1057 28.01 35.1049 28.0083 35.1042C27.9966 35.0988 27.9848 35.0935 27.9729 35.0885C27.9712 35.0878 27.9695 35.0871 27.9679 35.0864C27.9502 35.0789 27.9323 35.0719 27.9143 35.0652C27.9134 35.0648 27.9126 35.0645 27.9117 35.0642C27.7932 35.0204 27.6684 34.9929 27.5405 34.9832M27.5798 36.2025L27.6022 36.2224C28.0161 36.5895 28.4882 36.8855 28.9989 37.0981L29.7 37.3899L29.7005 37.3901L29.7575 37.4139M29.7575 37.4139V37.5342L29.7587 37.4144M29.7575 37.4139V37.2033V37.2031V37.2028V37.2018V37.1982V37.1937V37.0342C29.7046 37.0342 29.6545 37.059 29.6224 37.1018C29.6223 37.1019 29.6222 37.102 29.6222 37.1021C29.6221 37.1021 29.6221 37.1022 29.6221 37.1023C29.622 37.1023 29.622 37.1023 29.622 37.1023C29.591 37.1442 29.5809 37.1986 29.5953 37.2493C29.5955 37.2499 29.5957 37.2505 29.5958 37.251L29.5953 37.2493L29.5953 37.2493C29.5647 37.1448 29.531 37.0414 29.4942 36.9392C29.5958 36.9758 29.6986 37.0094 29.8026 37.0398L29.8034 37.04C29.8031 37.04 29.8028 37.0399 29.8026 37.0398C29.7914 37.0367 29.7779 37.0344 29.7625 37.0342L29.761 37.1817L29.761 37.1865L29.7608 37.2009L29.7608 37.2021L29.7608 37.2052L29.7608 37.2057L29.7587 37.4144M29.7575 37.4139L29.7587 37.4144M29.7587 37.4144L29.9301 37.4857C29.9657 37.4639 29.9973 37.4354 30.0229 37.4011C30.0289 37.393 30.0345 37.3848 30.0397 37.3764L29.9447 37.1475L29.9445 37.1471L29.6528 36.4448C29.4409 35.9346 29.146 35.4632 28.7802 35.0495L28.7701 35.0381L28.7593 35.0274C28.7577 35.0257 28.756 35.0241 28.7544 35.0224M28.7544 35.0224L28.8721 34.9117L28.7501 35.0182M28.7544 35.0224C28.7529 35.021 28.7515 35.0196 28.7501 35.0182M28.7544 35.0224L28.5078 35.2541C28.5058 35.252 28.5038 35.2499 28.5018 35.2478M28.7501 35.0182C28.4351 34.7073 28.02 34.5181 27.5783 34.4847L27.1509 34.4523M28.7501 35.0182L28.4953 35.2404C28.4975 35.2428 28.4996 35.2453 28.5018 35.2478M27.1509 34.4523L27.2383 34.6808L27.3998 34.7404C27.3923 34.7605 27.387 34.7808 27.3837 34.8011L27.3836 34.8013C27.3816 34.8137 27.3798 34.8263 27.3784 34.839M27.3784 34.839C27.3295 34.8445 27.2807 34.8527 27.2321 34.8637L27.2115 34.7729L27.2115 34.7728L27.1872 34.6653L27.0107 34.5978M27.3784 34.839C27.4364 34.8324 27.4944 34.8297 27.5521 34.8308C27.9074 34.837 28.2509 34.9842 28.5018 35.2478M27.3784 34.839L28.5018 35.2478M27.0107 34.5978L27.0213 34.7415L27.0213 34.7415L27.0335 34.9067M27.0335 34.9067H26.8737L27.0337 34.9092M27.0335 34.9067L27.0337 34.9092M27.0335 34.9067H27.3736V34.91V34.911V34.912H27.3736C27.3736 34.9128 27.3736 34.9137 27.3736 34.9145L27.2179 34.912H27.0339M27.0337 34.9092L27.0338 34.9108M27.0337 34.9092L27.1041 34.9103L27.0338 34.9108M27.0338 34.9108L26.8737 34.912H27.0339M27.0338 34.9108L27.0339 34.912M27.0339 34.912L27.0419 35.0201C27.047 35.0896 27.0563 35.1582 27.0694 35.2258M27.0694 35.2258C27.0696 35.2266 27.0698 35.2282 27.0703 35.2309C27.0717 35.2396 27.0737 35.2512 27.0768 35.2664M27.0694 35.2258C27.0693 35.2251 27.0693 35.2249 27.0693 35.2249C27.0693 35.2249 27.0695 35.2263 27.0697 35.2271L27.3976 35.1643M27.0694 35.2258C27.0697 35.2269 27.0699 35.228 27.0701 35.2292L27.3977 35.1649M27.0768 35.2664C27.0769 35.2669 27.077 35.2674 27.0771 35.268L27.4048 35.2012C27.4047 35.2008 27.4046 35.2003 27.4045 35.1999L27.0764 35.2643C27.0765 35.265 27.0767 35.2657 27.0768 35.2664ZM27.4432 35.3484C27.4468 35.36 27.4506 35.3715 27.4546 35.383H27.5102L27.5129 35.3484M27.4432 35.3484H27.5129M27.4432 35.3484C27.4405 35.3398 27.4378 35.3312 27.4353 35.3226C27.4351 35.3221 27.435 35.3215 27.4348 35.3209C27.4289 35.3009 27.4234 35.2807 27.4183 35.2605M27.5129 35.3484H27.6191C27.6099 35.3233 27.6016 35.2983 27.5942 35.274C27.5903 35.2608 27.5872 35.2481 27.584 35.2353C27.5826 35.2295 27.5812 35.2237 27.5797 35.2177M27.5129 35.3484L27.5167 35.2977L27.5168 35.2968L27.5216 35.2331M27.5797 35.2177C27.5783 35.2127 27.577 35.208 27.5758 35.2035C27.5724 35.191 27.5694 35.1802 27.567 35.1681M27.5797 35.2177L27.5216 35.2326L27.5216 35.2331M27.5797 35.2177L27.5216 35.2331M27.567 35.1681C27.565 35.1583 27.564 35.1519 27.563 35.146C27.5623 35.1418 27.5617 35.1378 27.5607 35.133M27.567 35.1681L27.5259 35.1761M27.567 35.1681L27.5259 35.1765L27.5259 35.1761M27.5607 35.133C27.551 35.0835 27.5442 35.0335 27.5405 34.9832M27.5607 35.133L27.5287 35.1393M27.5607 35.133L27.5287 35.1391M27.5405 34.9832L28.0391 34.9463C28.0413 34.9763 28.0454 35.0064 28.0514 35.0368L28.0518 35.0388L28.0518 35.0388C28.0541 35.0511 28.056 35.0629 28.0565 35.0659C28.0565 35.066 28.0565 35.066 28.0566 35.0661L27.3768 34.9953C27.3806 35.0522 27.3875 35.1086 27.3976 35.1643M27.5405 34.9832L27.5287 35.1391M27.5287 35.1391L27.3976 35.1643M27.5287 35.1391L27.5287 35.1393M27.3976 35.1643C27.3977 35.1645 27.3977 35.1647 27.3977 35.1649M27.5287 35.1393L27.5259 35.1761M27.5287 35.1393L27.3977 35.1649M27.5259 35.1761L27.3977 35.1649M27.5216 35.2331L27.4183 35.2605M27.4183 35.2605C27.4182 35.26 27.4181 35.2596 27.418 35.2592L27.4183 35.2605ZM27.4783 35.4474C27.4779 35.4464 27.4775 35.4455 27.4772 35.4445L27.8071 35.9515C27.6632 35.8061 27.552 35.6342 27.4783 35.4474ZM27.2776 34.7836L27.2401 34.6855L27.3978 34.7458C27.3903 34.7652 27.3794 34.7829 27.3657 34.7981C27.3657 34.7982 27.3656 34.7982 27.3656 34.7983C27.348 34.8178 27.3257 34.8333 27.3003 34.843L27.2777 34.7838L27.2776 34.7836Z" fill="black" stroke="black" stroke-width="0.999946"/>
<path d="M30.94 37.1693C30.933 37.1366 30.9257 37.1049 30.9181 37.0743C30.918 37.074 30.918 37.0737 30.9179 37.0734C30.9168 37.069 30.9157 37.0646 30.9146 37.0602L30.9117 37.0487L30.9117 37.0487L30.9116 37.0482L30.9115 37.0478C30.9102 37.0431 30.9078 37.0337 30.905 37.0219C30.8908 36.9669 30.8761 36.9146 30.8594 36.8553L30.8559 36.8428C30.853 36.8329 30.8505 36.8234 30.8495 36.8196C30.8485 36.8159 30.8482 36.8146 30.8482 36.8144L30.8233 36.7276L30.6656 36.777M30.94 37.1693L31.0029 37.5634C31.0095 37.6333 31.0133 37.6902 31.0133 37.7413V37.7413V37.7414V37.7414V37.7415V37.7415V37.7415V37.7416V37.7416V37.7417V37.7417V37.7417V37.7418V37.7418V37.7419V37.7419V37.7419V37.742V37.742V37.7421V37.7421V37.7421V37.7422V37.7422V37.7423V37.7423V37.7424V37.7424V37.7424V37.7425V37.7425V37.7426V37.7426V37.7426V37.7427V37.7427V37.7428V37.7428V37.7428V37.7429V37.7429V37.743V37.743V37.7431V37.7431V37.7431V37.7432V37.7432V37.7433V37.7433V37.7433V37.7434V37.7434V37.7435V37.7435V37.7436V37.7436V37.7436V37.7437V37.7437V37.7438V37.7438V37.7438V37.7439V37.7439V37.744V37.744V37.7441V37.7441V37.7441V37.7442V37.7442V37.7443V37.7443V37.7443V37.7444V37.7444V37.7445V37.7445V37.7446V37.7446V37.7446V37.7447V37.7447V37.7448V37.7448V37.7448V37.7449V37.7449V37.745V37.745V37.7451V37.7451V37.7451V37.7452V37.7452V37.7453V37.7453V37.7453V37.7454V37.7454V37.7455V37.7455V37.7456V37.7456V37.7456V37.7457V37.7457V37.7458V37.7458V37.7459V37.7459V37.7459V37.746V37.746V37.7461V37.7461V37.7461V37.7462V37.7462V37.7463V37.7463V37.7464V37.7464V37.7464V37.7465V37.7465V37.7466V37.7466V37.7467V37.7467V37.7467V37.7468V37.7468V37.7469V37.7469V37.7469V37.747V37.747V37.7471V37.7471V37.7472V37.7472V37.7472V37.7473V37.7473V37.7474V37.7474V37.7475V37.7475V37.7475V37.7476V37.7476V37.7477V37.7477V37.7477V37.7478V37.7478V37.7479V37.7479V37.748V37.748V37.748V37.7481V37.7481V37.7482V37.7482V37.7483V37.7483V37.7483V37.7484V37.7484V37.7485V37.7485V37.7486V37.7486V37.7486V37.7487V37.7487V37.7488V37.7488V37.7489V37.7489V37.7489V37.749V37.749V37.7491V37.7491V37.7491V37.7492V37.7492V37.7493V37.7493V37.7494V37.7494V37.7494V37.7495V37.7495V37.7496V37.7496V37.7497V37.7497V37.7497V37.7498V37.7498V37.7499V37.7499V37.75V37.75V37.75V37.7501V37.7501V37.7502V37.7502V37.7503V37.7503V37.7503V37.7504V37.7504V37.7505V37.7505V37.7506V37.7506V37.7506V37.7507V37.7507V37.7508V37.7508V37.7509V37.7509V37.7509V37.751V37.751V37.7511V37.7511V37.7512V37.7512V37.7512V37.7513V37.7513V37.7514V37.7514V37.7514V37.7515V37.7515V37.7516V37.7516V37.7517V37.7517V37.7517V37.7518V37.7518V37.7519V37.7519V37.752V37.752V37.752V37.7521V37.7521V37.7522V37.7522V37.7523V37.7523V37.7523V37.7524V37.7524V37.7525V37.7525V37.7526V37.7526V37.7526V37.7527V37.7527V37.7528V37.7528V37.7529V37.7529V37.7529V37.753V37.753V37.7531V37.7531V37.7532V37.7532V37.7532V37.7533V37.7533V37.7534V37.7534V37.7535V37.7535V37.7535V37.7536V37.7536V37.7537V37.7537V37.7538V37.7538V37.7538V37.7539V37.7539V37.754V37.754V37.7541V37.7541V37.7541V37.7542V37.7542V37.7543V37.7543V37.7543V37.7544V37.7544V37.7545V37.7545V37.7546V37.7546V37.7546V37.7547V37.7547V37.7548V37.7548V37.7549V37.7549V37.7549V37.755V37.755V37.7551V37.7551V37.7552V37.7552V37.7552V37.7553V37.7553V37.7554V37.7554V37.7555V37.7555V37.7555V37.7556V37.7556V37.7557V37.7557V37.7558V37.7558V37.7558V37.7559V37.7559V37.756V37.756V37.756V37.7561V37.7561V37.7562V37.7562V37.7563V37.7563V37.7563V37.7564V37.7564V37.7565V37.7565V37.7566V37.7566V37.7566V37.7567V37.7567V37.7568V37.7568V37.7569V37.7569V37.7569V37.757V37.757V37.7571V37.7571V37.7571V37.7572V37.7572V37.7573V37.7573V37.7574V37.7574V37.7574V37.7575V37.7575V37.7576V37.7576V37.7577V37.7577V37.7577V37.7578V37.7578V37.7579V37.7579V37.7579V37.758V37.758V37.7581V37.7581V37.7582V37.7582V37.7582V37.7583V37.7583V37.7584V37.7584V37.7585V37.7585V37.7585V37.7586V37.7586V37.7587V37.7587V37.7587V37.7588V37.7588V37.7589V37.7589V37.759V37.759V37.759V37.7591V37.7591V37.7592V37.7592V37.7592V37.7593V37.7593V37.7594V37.7594V37.7595V37.7595V37.7595V37.7596V37.7596V37.7597V37.7597V37.7598V37.7598V37.7598V37.7599V37.7599V37.76V37.76V37.76V37.7601V37.7601V37.7602V37.7602V37.7603V37.7603V37.7603V37.7604V37.7604V37.7605V37.7605V37.7605V37.7606V37.7606V37.7607V37.7607V37.7607V37.7608V37.7608V37.7609V37.7609V37.761V37.761V37.761V37.7611V37.7611V37.7612V37.7612V37.7612V37.7613V37.7613V37.7614V37.7614V37.7615V37.7615V37.7615V37.7616V37.7616V37.7617V37.7617V37.7617V37.7618V37.7618V37.7619V37.7619V37.7619V37.762V37.762V37.7621V37.7621V37.7621V37.7622V37.7622V37.7623V37.7623V37.7624V37.7624V37.7624V37.7625V37.7625V37.7626V37.7626V37.7626V37.7627V37.7627V37.7628V37.7628V37.9253H30.8507H29.6548H29.4923H29.1549H28.9923H28.467H28.3926H28.2728L27.4315 37.3501C27.238 37.2178 27.056 37.0693 26.8875 36.9062C26.8858 36.9047 26.8842 36.9031 26.8826 36.9015C26.8818 36.9008 26.8811 36.9001 26.8804 36.8994C26.3768 36.3929 26.1182 35.7574 26.0649 35.1737C26.0103 34.5744 26.1746 34.1016 26.4154 33.8609L26.4154 33.8608L26.5303 33.9756M30.94 37.1693L30.7794 37.205M30.94 37.1693L30.9953 37.4951C30.9952 37.4946 30.9951 37.494 30.9951 37.4934C30.9951 37.4933 30.9951 37.4932 30.995 37.493L30.8507 37.5102V37.7615L30.3508 37.7664C30.3508 37.7647 30.3508 37.7631 30.3507 37.7615H28.467C27.9284 37.517 27.4324 37.188 26.9976 36.7869C26.0483 35.8345 26.0595 34.4466 26.5303 33.9756M30.6656 36.777L30.823 36.7264L30.8061 36.6672L30.8146 36.6412L30.5216 35.97C30.2599 35.3706 29.9016 34.8181 29.4613 34.3343C29.4592 34.332 29.4571 34.3297 29.4549 34.3274C29.4529 34.3251 29.4508 34.3228 29.4487 34.3206C28.9433 33.8204 28.3102 33.5634 27.7285 33.5104C27.1292 33.4558 26.6563 33.62 26.4154 33.8608L26.5303 33.9756M30.6656 36.777C30.7029 36.8933 30.7317 37.0049 30.7589 37.1133C30.7652 37.1391 30.7706 37.1642 30.7761 37.1896C30.7772 37.1947 30.7783 37.1998 30.7794 37.205M30.6656 36.777C30.395 35.9133 29.9432 35.1172 29.3406 34.4421C28.3889 33.4937 27.001 33.5047 26.5303 33.9756M38.761 41.5752H38.5984H32.9673H32.8048H32.4673H32.3048H32.1423V41.7377V52.3376V52.5001H32.3048H37.6041L38.761 41.5752ZM38.761 41.5752V41.7377V51.3433V41.5752ZM32.1423 52.8375H31.8048H31.6423H30.3173H30.1548H29.8174H29.6548H24.3551L24.3549 53.0001M32.1423 52.8375L37.6047 53.0001H24.3549M32.1423 52.8375H32.3048H37.6045H32.1423ZM24.3549 53.0001V52.8375C23.53 52.8375 22.8612 52.1688 22.8612 51.3438H22.6987M24.3549 53.0001C23.4408 52.9989 22.6998 52.258 22.6987 51.3438M22.6987 51.3438L22.8612 51.3436V41.7377V41.5752H22.6987H22.3674H22.0362H21.8675V41.4065V41.0753V38.4253V38.094V37.9253H22.0362H22.3674H26.5313C26.4664 37.8727 26.4027 37.8185 26.3404 37.7628H22.0362C21.8533 37.7628 21.705 37.9111 21.705 38.094V41.4065C21.705 41.5894 21.8533 41.7377 22.0362 41.7377H22.1987H22.6987V42.2377V51.3438ZM23.1987 41.5752V41.7377V51.3436V41.5752ZM23.1987 41.5752H23.3612H28.9923H29.1549H29.4923H29.6548H29.8174V41.7377V52.3376V52.5001H29.6548H24.3555L23.1987 41.5752ZM30.7794 37.205C30.7836 37.224 30.7877 37.2429 30.7915 37.2615H30.8507V37.4328V37.4329V37.5101L30.9402 37.1701L30.7794 37.205ZM30.8507 38.2615H31.0133V38.2628H31.5132H32.3048H32.4673V38.4253V41.0753V41.2378H32.3048H32.1423H31.8048H31.6423H30.3173H30.1548H29.8174H29.6548H29.4923V41.0753V38.4253V38.2615H29.6548H30.8507ZM32.8048 38.4253V38.2628H33.4926H33.6009H34.8103H39.5922H39.7547V38.4253V41.0753V41.2378H39.5922H39.2609H39.0984H38.761H38.5984H32.9673H32.8048V41.0753V38.4253ZM39.0984 51.3437V41.7377V41.5752H39.2609H39.5922H39.9234H40.0922V41.4065V41.0753V38.4253V38.094V37.9253H39.9234H39.5922H35.4284C35.4933 37.8727 35.557 37.8185 35.6193 37.7628H39.9234C40.1064 37.7628 40.2547 37.9111 40.2547 38.094V41.4065C40.2547 41.5894 40.1064 41.7377 39.9234 41.7377L39.0984 51.3437ZM27.6985 37.9253H27.1493H27.0382L27.1493 37.7628L27.6985 37.9253ZM28.7663 38.2628L28.7645 38.2615H28.9923H29.1549V38.4253V41.0753V41.2378H28.9923H23.3612H23.1987H22.8612H22.6987H22.3674H22.2049V41.0753V38.4253V38.2628H22.3674H27.1493H28.7663ZM30.3173 52.5001H30.1548V52.3376V41.7377V41.5752H30.3173H31.6423H31.8048V41.7377V52.3376V52.5001H31.6423H30.3173ZM29.6896 34.0841C29.127 33.5253 28.4352 33.2475 27.809 33.1795C27.2107 33.1146 26.564 33.2347 26.1768 33.6221C26.1768 33.6221 26.1768 33.6221 26.1768 33.6221C26.1768 33.6221 26.1767 33.6222 26.1767 33.6222L29.6896 34.0841ZM34.8103 37.7628L34.9214 37.9253L34.8103 37.7628Z" fill="black" stroke="black" stroke-width="0.999946"/>
<rect x="27.0869" y="41.7371" width="7.45342" height="10.559" fill="black"/>
<mask id="path-17-inside-1" fill="white">
<path d="M32.2011 37.5352C32.233 37.5352 32.2647 37.5306 32.2953 37.5216C33.1066 37.2845 33.8566 36.8735 34.493 36.3171C34.9643 35.8663 35.1675 35.2032 35.0297 34.5658C34.9963 34.4781 34.9269 34.4089 34.8393 34.3754C34.2019 34.2376 33.5387 34.4407 33.088 34.9121C32.5317 35.5485 32.1208 36.2985 31.8835 37.1098C31.8539 37.2101 31.8731 37.3184 31.9357 37.4021C31.9983 37.4858 32.0967 37.5352 32.2011 37.5352ZM33.5564 35.3805C33.7883 35.1488 34.0954 35.008 34.4222 34.9829C34.3974 35.3098 34.2564 35.6171 34.0248 35.849C33.6521 36.1806 33.2266 36.4475 32.7659 36.6388C32.9574 36.1782 33.2246 35.7529 33.5564 35.3805Z"/>
</mask>
<path d="M32.2011 37.5352C32.233 37.5352 32.2647 37.5306 32.2953 37.5216C33.1066 37.2845 33.8566 36.8735 34.493 36.3171C34.9643 35.8663 35.1675 35.2032 35.0297 34.5658C34.9963 34.4781 34.9269 34.4089 34.8393 34.3754C34.2019 34.2376 33.5387 34.4407 33.088 34.9121C32.5317 35.5485 32.1208 36.2985 31.8835 37.1098C31.8539 37.2101 31.8731 37.3184 31.9357 37.4021C31.9983 37.4858 32.0967 37.5352 32.2011 37.5352ZM33.5564 35.3805C33.7883 35.1488 34.0954 35.008 34.4222 34.9829C34.3974 35.3098 34.2564 35.6171 34.0248 35.849C33.6521 36.1806 33.2266 36.4475 32.7659 36.6388C32.9574 36.1782 33.2246 35.7529 33.5564 35.3805Z" fill="black"/>
<path d="M32.2953 37.5216L32.0148 36.5618L32.0112 36.5628L32.2953 37.5216ZM34.493 36.3171L35.1511 37.0699L35.168 37.0552L35.1841 37.0397L34.493 36.3171ZM35.0297 34.5658L36.007 34.3545L35.9911 34.2809L35.9644 34.2105L35.0297 34.5658ZM34.8393 34.3754L35.1961 33.4413L35.125 33.4141L35.0506 33.398L34.8393 34.3754ZM33.088 34.9121L32.3653 34.2209L32.3498 34.2371L32.335 34.254L33.088 34.9121ZM31.8835 37.1098L32.8425 37.3929L32.8432 37.3905L31.8835 37.1098ZM31.9357 37.4021L32.7368 36.8036L32.7362 36.8028L31.9357 37.4021ZM33.5564 35.3805L32.8498 34.6729L32.8291 34.6936L32.8096 34.7154L33.5564 35.3805ZM34.4222 34.9829L35.4193 35.0584L35.5072 33.8968L34.3457 33.9859L34.4222 34.9829ZM34.0248 35.849L34.6895 36.5961L34.7115 36.5765L34.7323 36.5556L34.0248 35.849ZM32.7659 36.6388L31.8426 36.2549L30.9129 38.4913L33.1495 37.5622L32.7659 36.6388ZM32.2011 38.5351C32.3278 38.5351 32.4552 38.5171 32.5793 38.4803L32.0112 36.5628C32.0742 36.5442 32.1382 36.5352 32.2011 36.5352V38.5351ZM32.5758 38.4814C33.5265 38.2035 34.4053 37.7219 35.1511 37.0699L33.8349 35.5643C33.3078 36.025 32.6867 36.3654 32.0148 36.5618L32.5758 38.4814ZM35.1841 37.0397C35.9068 36.3485 36.2183 35.3317 36.007 34.3545L34.0523 34.7771C34.1166 35.0747 34.0218 35.3841 33.8019 35.5945L35.1841 37.0397ZM35.9644 34.2105C35.8292 33.8548 35.5486 33.5759 35.1961 33.4413L34.4825 35.3095C34.3053 35.2419 34.1635 35.1014 34.0949 34.921L35.9644 34.2105ZM35.0506 33.398C34.0733 33.1868 33.0565 33.4982 32.3653 34.2209L33.8106 35.6032C34.0209 35.3833 34.3304 35.2884 34.628 35.3528L35.0506 33.398ZM32.335 34.254C31.6833 34.9998 31.2017 35.8786 30.9237 36.8291L32.8432 37.3905C33.0398 36.7184 33.3802 36.0972 33.8409 35.5701L32.335 34.254ZM30.9244 36.8267C30.806 37.2279 30.8825 37.6636 31.1352 38.0013L32.7362 36.8028C32.8638 36.9733 32.9017 37.1922 32.8425 37.3929L30.9244 36.8267ZM31.1347 38.0005C31.3857 38.3366 31.7808 38.5351 32.2011 38.5351V36.5352C32.4125 36.5352 32.6109 36.6351 32.7368 36.8036L31.1347 38.0005ZM34.2629 36.088C34.3258 36.0252 34.4094 35.9868 34.4987 35.9799L34.3457 33.9859C33.7815 34.0292 33.2508 34.2724 32.8498 34.6729L34.2629 36.088ZM33.4251 34.9074C33.4184 34.996 33.3801 35.0795 33.3172 35.1424L34.7323 36.5556C35.1327 36.1547 35.3765 35.6235 35.4193 35.0584L33.4251 34.9074ZM33.3601 35.102C33.0708 35.3594 32.7403 35.5667 32.3824 35.7154L33.1495 37.5622C33.7129 37.3282 34.2334 37.0018 34.6895 36.5961L33.3601 35.102ZM33.6893 37.0227C33.8379 36.6651 34.0454 36.3349 34.3031 36.0455L32.8096 34.7154C32.4039 35.171 32.0769 35.6913 31.8426 36.2549L33.6893 37.0227Z" fill="black" mask="url(#path-17-inside-1)"/>
<rect x="24.6666" y="43" width="7.66667" height="7.66667" fill="black"/>
<rect x="30" y="44.6665" width="7.66667" height="7.66667" fill="black"/>
</g>
<defs>
<clipPath id="clip0">
<rect width="20" height="20" fill="white" transform="translate(21 33)"/>
</clipPath>
</defs>
</svg>
