<svg width="187" height="304" viewBox="0 0 187 304" fill="none" xmlns="http://www.w3.org/2000/svg">
<circle cx="88.52" cy="219.065" r="15.0942" transform="rotate(13.9704 88.52 219.065)" fill="#C4C4C4"/>
<circle cx="88.52" cy="219.065" r="15.0942" transform="rotate(13.9704 88.52 219.065)" fill="url(#paint0_linear)"/>
<circle cx="54.9896" cy="243.387" r="11.5722" transform="rotate(13.9704 54.9896 243.387)" fill="#C4C4C4"/>
<circle cx="54.9896" cy="243.387" r="11.5722" transform="rotate(13.9704 54.9896 243.387)" fill="url(#paint1_linear)"/>
<circle cx="28.2904" cy="265.261" r="9.05652" transform="rotate(13.9704 28.2904 265.261)" fill="#C4C4C4"/>
<circle cx="28.2904" cy="265.261" r="9.05652" transform="rotate(13.9704 28.2904 265.261)" fill="url(#paint2_linear)"/>
<circle cx="6.70704" cy="279.075" r="5.53454" transform="rotate(13.9704 6.70704 279.075)" fill="#C4C4C4"/>
<circle cx="6.70704" cy="279.075" r="5.53454" transform="rotate(13.9704 6.70704 279.075)" fill="url(#paint3_linear)"/>
<ellipse rx="26.375" ry="26.6382" transform="matrix(0.988925 -0.148414 0.145721 0.989326 142.032 48.8047)" fill="#C4C4C4"/>
<ellipse rx="26.375" ry="26.6382" transform="matrix(0.988925 -0.148414 0.145721 0.989326 142.032 48.8047)" fill="url(#paint4_linear)"/>
<ellipse rx="20.2209" ry="20.4226" transform="matrix(0.988925 -0.148414 0.145721 0.989326 104.103 111.063)" fill="#C4C4C4"/>
<ellipse rx="20.2209" ry="20.4226" transform="matrix(0.988925 -0.148414 0.145721 0.989326 104.103 111.063)" fill="url(#paint5_linear)"/>
<ellipse rx="15.825" ry="15.9829" transform="matrix(0.988925 -0.148414 0.145721 0.989326 75.5733 164.728)" fill="#C4C4C4"/>
<ellipse rx="15.825" ry="15.9829" transform="matrix(0.988925 -0.148414 0.145721 0.989326 75.5733 164.728)" fill="url(#paint6_linear)"/>
<ellipse rx="8.86052" ry="8.94894" transform="matrix(0.988925 -0.148414 0.145721 0.989326 53.7383 203.565)" fill="#C4C4C4"/>
<ellipse rx="8.86052" ry="8.94894" transform="matrix(0.988925 -0.148414 0.145721 0.989326 53.7383 203.565)" fill="url(#paint7_linear)"/>
<defs>
<linearGradient id="paint0_linear" x1="73.4258" y1="219.025" x2="103.614" y2="219.025" gradientUnits="userSpaceOnUse">
<stop stop-color="#79DCD2"/>
<stop offset="1" stop-color="#3FB4C7"/>
</linearGradient>
<linearGradient id="paint1_linear" x1="43.4174" y1="243.357" x2="66.5618" y2="243.357" gradientUnits="userSpaceOnUse">
<stop stop-color="#79DCD2"/>
<stop offset="1" stop-color="#3FB4C7"/>
</linearGradient>
<linearGradient id="paint2_linear" x1="19.2339" y1="265.237" x2="37.3469" y2="265.237" gradientUnits="userSpaceOnUse">
<stop stop-color="#79DCD2"/>
<stop offset="1" stop-color="#3FB4C7"/>
</linearGradient>
<linearGradient id="paint3_linear" x1="1.1725" y1="279.061" x2="12.2416" y2="279.061" gradientUnits="userSpaceOnUse">
<stop stop-color="#79DCD2"/>
<stop offset="1" stop-color="#3FB4C7"/>
</linearGradient>
<linearGradient id="paint4_linear" x1="2.41247e-07" y1="26.5672" x2="52.7501" y2="26.5672" gradientUnits="userSpaceOnUse">
<stop stop-color="#79DCD2"/>
<stop offset="1" stop-color="#3FB4C7"/>
</linearGradient>
<linearGradient id="paint5_linear" x1="1.84956e-07" y1="20.3682" x2="40.4417" y2="20.3682" gradientUnits="userSpaceOnUse">
<stop stop-color="#79DCD2"/>
<stop offset="1" stop-color="#3FB4C7"/>
</linearGradient>
<linearGradient id="paint6_linear" x1="1.44748e-07" y1="15.9403" x2="31.65" y2="15.9403" gradientUnits="userSpaceOnUse">
<stop stop-color="#79DCD2"/>
<stop offset="1" stop-color="#3FB4C7"/>
</linearGradient>
<linearGradient id="paint7_linear" x1="8.10454e-08" y1="8.92507" x2="17.721" y2="8.92507" gradientUnits="userSpaceOnUse">
<stop stop-color="#79DCD2"/>
<stop offset="1" stop-color="#3FB4C7"/>
</linearGradient>
</defs>
</svg>
