<svg viewBox="0 0 285 303" fill="none" xmlns="http://www.w3.org/2000/svg">
<g opacity="0.3">
<circle cx="236.234" cy="95.4733" r="37.444" transform="rotate(20.1982 236.234 95.4733)" fill="#C4C4C4"/>
<circle cx="236.234" cy="95.4733" r="37.444" transform="rotate(20.1982 236.234 95.4733)" fill="url(#paint0_linear)"/>
<circle cx="147.001" cy="146.43" r="28.7071" transform="rotate(20.1982 147.001 146.43)" fill="#C4C4C4"/>
<circle cx="147.001" cy="146.43" r="28.7071" transform="rotate(20.1982 147.001 146.43)" fill="url(#paint1_linear)"/>
<circle cx="75.2735" cy="193.188" r="22.4664" transform="rotate(20.1982 75.2735 193.188)" fill="#C4C4C4"/>
<circle cx="75.2735" cy="193.188" r="22.4664" transform="rotate(20.1982 75.2735 193.188)" fill="url(#paint2_linear)"/>
<circle cx="18.3301" cy="221.445" r="13.7295" transform="rotate(20.1982 18.3301 221.445)" fill="#C4C4C4"/>
<circle cx="18.3301" cy="221.445" r="13.7295" transform="rotate(20.1982 18.3301 221.445)" fill="url(#paint3_linear)"/>
</g>
<defs>
<linearGradient id="paint0_linear" x1="198.79" y1="95.3735" x2="273.678" y2="95.3735" gradientUnits="userSpaceOnUse">
<stop stop-color="#79DCD2"/>
<stop offset="1" stop-color="#3FB4C7"/>
</linearGradient>
<linearGradient id="paint1_linear" x1="118.294" y1="146.354" x2="175.709" y2="146.354" gradientUnits="userSpaceOnUse">
<stop stop-color="#79DCD2"/>
<stop offset="1" stop-color="#3FB4C7"/>
</linearGradient>
<linearGradient id="paint2_linear" x1="52.8071" y1="193.128" x2="97.7399" y2="193.128" gradientUnits="userSpaceOnUse">
<stop stop-color="#79DCD2"/>
<stop offset="1" stop-color="#3FB4C7"/>
</linearGradient>
<linearGradient id="paint3_linear" x1="4.60063" y1="221.409" x2="32.0596" y2="221.409" gradientUnits="userSpaceOnUse">
<stop stop-color="#79DCD2"/>
<stop offset="1" stop-color="#3FB4C7"/>
</linearGradient>
</defs>
</svg>
