<svg viewBox="0 0 35 29" fill="none" xmlns="http://www.w3.org/2000/svg">
<path d="M29.1328 2.26562V2.39062H29.2578H30.8984C33.1142 2.39062 34.875 3.88006 34.875 5.66406V25.6016C34.875 27.3856 33.1142 28.875 30.8984 28.875H4.10156C1.88583 28.875 0.125 27.3856 0.125 25.6016V5.66406C0.125 3.88006 1.88583 2.39062 4.10156 2.39062H5.74219H5.86719V2.26562V0.125H8.35156V2.26562V2.39062H8.47656H26.5234H26.6484V2.26562V0.125H29.1328V2.26562ZM5.86719 4.53125V4.40625H5.74219H4.10156C3.30173 4.40625 2.60938 4.94946 2.60938 5.66406V8.38281V8.50781H2.73438H32.2656H32.3906V8.38281V5.66406C32.3906 4.94946 31.6983 4.40625 30.8984 4.40625H29.2578H29.1328V4.53125V6.67188H26.6484V4.53125V4.40625H26.5234H8.47656H8.35156V4.53125V6.67188H5.86719V4.53125ZM2.73438 10.5234H2.60938V10.6484V25.6016C2.60938 26.3162 3.30173 26.8594 4.10156 26.8594H30.8984C31.6983 26.8594 32.3906 26.3162 32.3906 25.6016V10.6484V10.5234H32.2656H2.73438ZM24.3359 19.6992H24.2109V19.8242V22.0898V22.2148H24.3359H27.0703H27.1953V22.0898V19.8242V19.6992H27.0703H24.3359ZM29.6797 17.6836V24.2305H21.7266V17.6836H29.6797Z" fill="black" stroke="white" stroke-width="0.25"/>
</svg>
