<svg viewBox="0 0 44 44" fill="none" xmlns="http://www.w3.org/2000/svg">
<path d="M10.2667 28.9667C7.84008 28.9667 5.8667 30.9401 5.8667 33.3667C5.8667 35.7933 7.84008 37.7667 10.2667 37.7667C12.6933 37.7667 14.6667 35.7933 14.6667 33.3667C14.6667 30.9401 12.6932 28.9667 10.2667 28.9667ZM10.2667 36.3C8.64893 36.3 7.33339 34.9844 7.33339 33.3667C7.33339 31.7489 8.64901 30.4334 10.2667 30.4334C11.8844 30.4334 13.2 31.749 13.2 33.3667C13.2 34.9844 11.8844 36.3 10.2667 36.3Z" fill="black"/>
<path d="M35.2001 28.9667C32.7734 28.9667 30.8 30.9401 30.8 33.3667C30.8 35.7933 32.7734 37.7667 35.2001 37.7667C37.6267 37.7667 39.6001 35.7933 39.6001 33.3667C39.6001 30.9401 37.6267 28.9667 35.2001 28.9667ZM35.2001 36.3C33.5823 36.3 32.2667 34.9844 32.2667 33.3667C32.2667 31.7489 33.5824 30.4334 35.2001 30.4334C36.8178 30.4334 38.1334 31.749 38.1334 33.3667C38.1334 34.9844 36.8178 36.3 35.2001 36.3Z" fill="black"/>
<path d="M43.8833 24.9034L37.2833 14.6367C37.1483 14.4269 36.9159 14.3 36.6665 14.3H28.5999C28.1943 14.3 27.8666 14.6286 27.8666 15.0334V33.3667C27.8666 33.7722 28.1943 34.1 28.5999 34.1H31.5332V32.6333H29.3332V15.7667H36.2661L42.5332 25.5157V32.6334H38.8665V34.1001H43.2665C43.672 34.1001 43.9998 33.7723 43.9998 33.3667V25.3001C43.9999 25.16 43.9596 25.0214 43.8833 24.9034Z" fill="black"/>
<path d="M32.2665 23.8332V18.6999H38.1332V17.2332H31.5332C31.1277 17.2332 30.7999 17.5617 30.7999 17.9665V24.5665C30.7999 24.972 31.1277 25.2998 31.5332 25.2998H42.5332V23.8331H32.2665V23.8332Z" fill="black"/>
<path d="M28.6 9.16675H0.733305C0.328539 9.16675 0 9.49529 0 9.90005V33.3668C0 33.7723 0.328539 34.1001 0.733305 34.1001H6.6V32.6334H1.4667V10.6334H27.8667V32.6334H13.9333V34.1001H28.6C29.0055 34.1001 29.3333 33.7723 29.3333 33.3668V9.90005C29.3333 9.49529 29.0055 9.16675 28.6 9.16675Z" fill="black"/>
<path d="M5.13303 29.7H0.733032V31.1667H5.13303V29.7Z" fill="black"/>
<path d="M27.8665 29.7H15.3998V31.1667H27.8665V29.7Z" fill="black"/>
<path d="M43.2667 29.7H40.3334V31.1667H43.2667V29.7Z" fill="black"/>
<path d="M28.6 12.1001H2.93335V13.5668H28.6V12.1001Z" fill="black"/>
<path d="M10.9998 32.6334H9.53308V34.1001H10.9998V32.6334Z" fill="black"/>
<path d="M35.9336 32.6334H34.4669V34.1001H35.9336V32.6334Z" fill="black"/>
<path d="M13.2 6.23315H2.93335V7.69985H13.2V6.23315Z" fill="black"/>
<path d="M1.4667 6.23315H0V7.69985H1.4667V6.23315Z" fill="black"/>
</svg>
