<svg width="61" height="173" viewBox="0 0 61 173" fill="none" xmlns="http://www.w3.org/2000/svg">
<circle cx="47.2581" cy="114.568" r="10.0222" transform="rotate(-3.20997 47.2581 114.568)" fill="#C4C4C4"/>
<circle cx="47.2581" cy="114.568" r="10.0222" transform="rotate(-3.20997 47.2581 114.568)" fill="url(#paint0_linear)"/>
<circle cx="30.7585" cy="136.573" r="7.68369" transform="rotate(-3.20997 30.7585 136.573)" fill="#C4C4C4"/>
<circle cx="30.7585" cy="136.573" r="7.68369" transform="rotate(-3.20997 30.7585 136.573)" fill="url(#paint1_linear)"/>
<circle cx="18.1118" cy="155.685" r="6.01332" transform="rotate(-3.20997 18.1118 155.685)" fill="#C4C4C4"/>
<circle cx="18.1118" cy="155.685" r="6.01332" transform="rotate(-3.20997 18.1118 155.685)" fill="url(#paint2_linear)"/>
<circle cx="7.12982" cy="168.681" r="3.67481" transform="rotate(-3.20997 7.12982 168.681)" fill="#C4C4C4"/>
<circle cx="7.12982" cy="168.681" r="3.67481" transform="rotate(-3.20997 7.12982 168.681)" fill="url(#paint3_linear)"/>
<ellipse rx="15.091" ry="15.2416" transform="matrix(0.90096 -0.433901 0.431446 0.902139 32.8855 20.298)" fill="#C4C4C4"/>
<ellipse rx="15.091" ry="15.2416" transform="matrix(0.90096 -0.433901 0.431446 0.902139 32.8855 20.298)" fill="url(#paint4_linear)"/>
<ellipse rx="11.5698" ry="11.6852" transform="matrix(0.90096 -0.433901 0.431446 0.902139 22.6746 60.741)" fill="#C4C4C4"/>
<ellipse rx="11.5698" ry="11.6852" transform="matrix(0.90096 -0.433901 0.431446 0.902139 22.6746 60.741)" fill="url(#paint5_linear)"/>
<ellipse rx="9.05462" ry="9.14497" transform="matrix(0.90096 -0.433901 0.431446 0.902139 16.1486 94.8981)" fill="#C4C4C4"/>
<ellipse rx="9.05462" ry="9.14497" transform="matrix(0.90096 -0.433901 0.431446 0.902139 16.1486 94.8981)" fill="url(#paint6_linear)"/>
<ellipse rx="5.06973" ry="5.12032" transform="matrix(0.90096 -0.433901 0.431446 0.902139 10.7768 119.819)" fill="#C4C4C4"/>
<ellipse rx="5.06973" ry="5.12032" transform="matrix(0.90096 -0.433901 0.431446 0.902139 10.7768 119.819)" fill="url(#paint7_linear)"/>
<defs>
<linearGradient id="paint0_linear" x1="37.2359" y1="114.541" x2="57.2803" y2="114.541" gradientUnits="userSpaceOnUse">
<stop stop-color="#79DCD2"/>
<stop offset="1" stop-color="#3FB4C7"/>
</linearGradient>
<linearGradient id="paint1_linear" x1="23.0748" y1="136.552" x2="38.4422" y2="136.552" gradientUnits="userSpaceOnUse">
<stop stop-color="#79DCD2"/>
<stop offset="1" stop-color="#3FB4C7"/>
</linearGradient>
<linearGradient id="paint2_linear" x1="12.0985" y1="155.669" x2="24.1252" y2="155.669" gradientUnits="userSpaceOnUse">
<stop stop-color="#79DCD2"/>
<stop offset="1" stop-color="#3FB4C7"/>
</linearGradient>
<linearGradient id="paint3_linear" x1="3.45501" y1="168.671" x2="10.8046" y2="168.671" gradientUnits="userSpaceOnUse">
<stop stop-color="#79DCD2"/>
<stop offset="1" stop-color="#3FB4C7"/>
</linearGradient>
<linearGradient id="paint4_linear" x1="1.38035e-07" y1="15.201" x2="30.1821" y2="15.201" gradientUnits="userSpaceOnUse">
<stop stop-color="#79DCD2"/>
<stop offset="1" stop-color="#3FB4C7"/>
</linearGradient>
<linearGradient id="paint5_linear" x1="1.05826e-07" y1="11.6541" x2="23.1396" y2="11.6541" gradientUnits="userSpaceOnUse">
<stop stop-color="#79DCD2"/>
<stop offset="1" stop-color="#3FB4C7"/>
</linearGradient>
<linearGradient id="paint6_linear" x1="8.28207e-08" y1="9.12058" x2="18.1092" y2="9.12058" gradientUnits="userSpaceOnUse">
<stop stop-color="#79DCD2"/>
<stop offset="1" stop-color="#3FB4C7"/>
</linearGradient>
<linearGradient id="paint7_linear" x1="4.63718e-08" y1="5.10667" x2="10.1395" y2="5.10667" gradientUnits="userSpaceOnUse">
<stop stop-color="#79DCD2"/>
<stop offset="1" stop-color="#3FB4C7"/>
</linearGradient>
</defs>
</svg>
