<svg width="36" height="30" viewBox="0 0 36 30" fill="none" xmlns="http://www.w3.org/2000/svg">
<path d="M32.0628 29.0114H4.65294C2.48238 29.0114 0.71582 27.1174 0.71582 24.7889V4.22241C0.71582 1.89457 2.48179 0 4.65294 0H32.0628C34.2339 0 35.9999 1.89394 35.9999 4.22241V24.7889C35.9999 27.1174 34.2339 29.0114 32.0628 29.0114ZM4.65294 1.26136C3.13102 1.26136 1.89196 2.58958 1.89196 4.22241V24.7889C1.89196 26.4218 3.13043 27.75 4.65294 27.75H32.0628C33.5853 27.75 34.8238 26.4218 34.8238 24.7889V4.22241C34.8238 2.58958 33.5853 1.26136 32.0628 1.26136H4.65294Z" fill="black"/>
<path d="M14.4824 22.6686C14.2413 22.6686 14.0002 22.6011 13.7797 22.4662C13.3322 22.1918 13.0652 21.6986 13.0652 21.1462V7.86399C13.0652 7.31152 13.3328 6.81832 13.7797 6.54398C14.2272 6.27026 14.7594 6.27467 15.2028 6.55596L25.6822 13.197C26.1179 13.4733 26.3785 13.9621 26.3785 14.5051C26.3785 15.0481 26.1179 15.5375 25.6822 15.8131L15.2034 22.4542C14.9782 22.5974 14.73 22.6686 14.4824 22.6686ZM14.483 7.60541C14.4319 7.60541 14.3889 7.62433 14.3625 7.64073C14.3172 7.66848 14.2407 7.73407 14.2407 7.86462V21.1468C14.2407 21.2773 14.3166 21.3436 14.3625 21.3707C14.4077 21.3984 14.4995 21.435 14.6047 21.3688L25.0835 14.7277C25.1864 14.6621 25.2023 14.5606 25.2023 14.5051C25.2023 14.4496 25.187 14.348 25.0841 14.2824L14.6047 7.64136C14.5612 7.61487 14.5195 7.60541 14.483 7.60541Z" fill="black"/>
</svg>
